<?xml version="1.0" encoding="UTF-8" standalone="no"?>
<svg
   xmlns:dc="http://purl.org/dc/elements/1.1/"
   xmlns:cc="http://creativecommons.org/ns#"
   xmlns:rdf="http://www.w3.org/1999/02/22-rdf-syntax-ns#"
   xmlns:svg="http://www.w3.org/2000/svg"
   xmlns="http://www.w3.org/2000/svg"
   viewBox="0 0 311.28268 310.33466"
   height="310.33466"
   width="311.28268"
   xml:space="preserve"
   id="svg2"
   version="1.1"><metadata
     id="metadata8"><rdf:RDF><cc:Work
         rdf:about=""><dc:format>image/svg+xml</dc:format><dc:type
           rdf:resource="http://purl.org/dc/dcmitype/StillImage" /></cc:Work></rdf:RDF></metadata><defs
     id="defs6"><clipPath
       id="clipPath466"
       clipPathUnits="userSpaceOnUse"><path
         id="path464"
         d="m -93.55644,-87.31895 -31.16934,-6.22536 v -12.47239 z" /></clipPath><clipPath
       id="clipPath480"
       clipPathUnits="userSpaceOnUse"><path
         id="path478"
         d="M 0,0 H 100 V 100 H 0 Z" /></clipPath><linearGradient
       id="linearGradient492"
       gradientUnits="userSpaceOnUse"
       y2="100.00128"
       x2="0"
       y1="0"
       x1="0"><stop
         id="stop482"
         offset="0"
         style="stop-opacity:1;stop-color:#ffffff" /><stop
         id="stop484"
         offset="25.00032"
         style="stop-opacity:1;stop-color:#ffffff" /><stop
         id="stop486"
         offset="50.00064"
         style="stop-opacity:1;stop-color:#abe4ff" /><stop
         id="stop488"
         offset="75.00096"
         style="stop-opacity:1;stop-color:#57caff" /><stop
         id="stop490"
         offset="100.00128"
         style="stop-opacity:1;stop-color:#57caff" /></linearGradient><clipPath
       id="clipPath502"
       clipPathUnits="userSpaceOnUse"><path
         id="path500"
         d="m -81.08243,-106.03044 -18.69855,-18.69534 12.47333,-6.23665 z" /></clipPath><clipPath
       id="clipPath516"
       clipPathUnits="userSpaceOnUse"><path
         id="path514"
         d="M 0,0 H 100 V 100 H 0 Z" /></clipPath><linearGradient
       id="linearGradient528"
       gradientUnits="userSpaceOnUse"
       y2="100.00128"
       x2="0"
       y1="0"
       x1="0"><stop
         id="stop518"
         offset="0"
         style="stop-opacity:1;stop-color:#ffffff" /><stop
         id="stop520"
         offset="25.00032"
         style="stop-opacity:1;stop-color:#ffffff" /><stop
         id="stop522"
         offset="50.00064"
         style="stop-opacity:1;stop-color:#abe4ff" /><stop
         id="stop524"
         offset="75.00096"
         style="stop-opacity:1;stop-color:#57caff" /><stop
         id="stop526"
         offset="100.00128"
         style="stop-opacity:1;stop-color:#57caff" /></linearGradient><clipPath
       id="clipPath538"
       clipPathUnits="userSpaceOnUse"><path
         id="path536"
         d="m 31.18542,-180.87543 -0.004,-31.15802 24.94478,12.47238 -24.94077,18.68564 z" /></clipPath><clipPath
       id="clipPath552"
       clipPathUnits="userSpaceOnUse"><path
         id="path550"
         d="M 0,0 H 100 V 100 H 0 Z" /></clipPath><linearGradient
       id="linearGradient564"
       gradientUnits="userSpaceOnUse"
       y2="100.00128"
       x2="0"
       y1="0"
       x1="0"><stop
         id="stop554"
         offset="0"
         style="stop-opacity:1;stop-color:#ffffff" /><stop
         id="stop556"
         offset="25.00032"
         style="stop-opacity:1;stop-color:#ffffff" /><stop
         id="stop558"
         offset="50.00064"
         style="stop-opacity:1;stop-color:#abe4ff" /><stop
         id="stop560"
         offset="75.00096"
         style="stop-opacity:1;stop-color:#57caff" /><stop
         id="stop562"
         offset="100.00128"
         style="stop-opacity:1;stop-color:#57caff" /></linearGradient><clipPath
       id="clipPath574"
       clipPathUnits="userSpaceOnUse"><path
         id="path572"
         d="m 43.65945,-168.40143 18.70343,-18.68724 6.23667,12.47241 z" /></clipPath><clipPath
       id="clipPath588"
       clipPathUnits="userSpaceOnUse"><path
         id="path586"
         d="M 0,0 H 100 V 100 H 0 Z" /></clipPath><linearGradient
       id="linearGradient600"
       gradientUnits="userSpaceOnUse"
       y2="100.00128"
       x2="0"
       y1="0"
       x1="0"><stop
         id="stop590"
         offset="0"
         style="stop-opacity:1;stop-color:#ffffff" /><stop
         id="stop592"
         offset="25.00032"
         style="stop-opacity:1;stop-color:#ffffff" /><stop
         id="stop594"
         offset="50.00064"
         style="stop-opacity:1;stop-color:#abe4ff" /><stop
         id="stop596"
         offset="75.00096"
         style="stop-opacity:1;stop-color:#57caff" /><stop
         id="stop598"
         offset="100.00128"
         style="stop-opacity:1;stop-color:#57caff" /></linearGradient></defs><g
     transform="matrix(1.3333333,0,0,-1.3333333,0,310.33467)"
     id="g10"><g
       transform="translate(133.47,217.016)"
       id="g12"><g
         id="g14"><g
           id="g16"><g
             id="g18"><g
               id="g20"><g
                 transform="translate(-69.13,4.693)"
                 id="g22"><g
                   id="g24"><g
                     transform="translate(-64.34,-221.709)"
                     id="g26"><g
                       style="font-variant:normal;font-weight:normal;font-size:9.96264px;font-family:'Fira Sans';-inkscape-font-specification:FiraSans-Book;writing-mode:lr-tb;fill:#000000;fill-opacity:1;fill-rule:nonzero;stroke:none"
                       id="text30"
                       transform="matrix(1,0,0,-1,64.34,221.709)"
                       aria-label="PrimaryCosmicRay"><path
                         id="path700"
                         d="M 2.7995018,-6.8642588 H 0.99626398 V 0 H 1.9427148 v -2.5205479 h 0.8667496 c 1.5143213,0 2.6600249,-0.6475716 2.6600249,-2.2216686 0,-1.4445828 -1.0161893,-2.1220423 -2.6699875,-2.1220423 z m -0.029888,3.5965129 H 1.9427148 v -2.8592776 h 0.8468243 c 1.0161893,0 1.6737235,0.3686177 1.6737235,1.3947696 0,1.1656288 -0.6774595,1.464508 -1.6936487,1.464508 z" /><path
                         id="path702"
                         d="m 8.7571605,-5.3698629 c -0.637609,0 -1.1257783,0.3985056 -1.4047323,1.1855542 L 7.2627645,-5.2503112 H 6.4757159 V 0 h 0.9165629 v -2.9987546 c 0.2191781,-1.0062266 0.5977584,-1.4744707 1.2552926,-1.4744707 0.1892902,0 0.2988792,0.019925 0.4582815,0.059776 L 9.2752177,-5.310087 c -0.1594022,-0.039851 -0.3486924,-0.059776 -0.5180572,-0.059776 z" /><path
                         id="path704"
                         d="m 10.709838,-7.7708591 c -0.37858,0 -0.637609,0.2689913 -0.637609,0.6276464 0,0.3486924 0.259029,0.6176836 0.637609,0.6176836 0.388543,0 0.647572,-0.2689912 0.647572,-0.6176836 0,-0.3586551 -0.259029,-0.6276464 -0.647572,-0.6276464 z m 0.468244,2.5205479 H 10.261519 V 0 h 0.916563 z" /><path
                         id="path706"
                         d="m 18.261519,-5.3698629 c -0.707348,0 -1.185554,0.3785804 -1.564135,0.9464508 -0.199252,-0.5977584 -0.677459,-0.9464508 -1.325031,-0.9464508 -0.687422,0 -1.165629,0.3586551 -1.514321,0.886675 l -0.0797,-0.7671233 H 12.991282 V 0 h 0.916563 v -3.7260273 c 0.348693,-0.5579078 0.667497,-0.9265255 1.235367,-0.9265255 0.398506,0 0.737236,0.2291407 0.737236,1.0161893 V 0 h 0.916563 v -3.7260273 c 0.358655,-0.5579078 0.667497,-0.9265255 1.235367,-0.9265255 0.398506,0 0.737235,0.2291407 0.737235,1.0161893 V 0 h 0.916563 v -3.7658778 c 0,-0.9863014 -0.56787,-1.6039851 -1.424657,-1.6039851 z" /><path
                         id="path708"
                         d="m 24.976338,-1.2254047 v -2.4009962 c 0,-1.0958904 -0.577833,-1.743462 -1.843089,-1.743462 -0.587795,0 -1.165628,0.1195517 -1.8132,0.3586551 l 0.229141,0.6674968 c 0.537982,-0.1793275 1.026152,-0.2789539 1.414695,-0.2789539 0.727272,0 1.09589,0.2789539 1.09589,1.0361146 v 0.3885429 h -0.806974 c -1.464508,0 -2.311332,0.607721 -2.311332,1.7334993 0,0.93648819 0.627646,1.58405978 1.673723,1.58405978 0.637609,0 1.195517,-0.23910336 1.564135,-0.78704855 0.159402,0.51805727 0.498132,0.72727271 1.026151,0.78704855 l 0.209216,-0.63760895 c -0.268991,-0.0996264 -0.438356,-0.249066 -0.438356,-0.70734743 z m -2.15193,0.65753423 c -0.597759,0 -0.906601,-0.32876711 -0.906601,-0.94645083 0,-0.71731 0.48817,-1.0759651 1.454546,-1.0759651 h 0.687422 v 1.2054795 c -0.298879,0.54794516 -0.697385,0.81693643 -1.235367,0.81693643 z" /><path
                         id="path710"
                         d="m 29.090908,-5.3698629 c -0.637609,0 -1.125778,0.3985056 -1.404732,1.1855542 l -0.08966,-1.0660025 H 26.809463 V 0 h 0.916563 v -2.9987546 c 0.219178,-1.0062266 0.597759,-1.4744707 1.255293,-1.4744707 0.18929,0 0.298879,0.019925 0.458281,0.059776 l 0.169365,-0.8966376 c -0.159402,-0.039851 -0.348692,-0.059776 -0.518057,-0.059776 z" /><path
                         id="path712"
                         d="M 34.480698,-5.2503112 H 33.534247 L 32.159403,-0.66749687 30.75467,-5.2503112 H 29.778332 L 31.541719,0 h 0.308842 C 31.551681,0.81693646 31.252802,1.2254047 30.1868,1.4047322 l 0.09963,0.7173101 C 31.740972,1.96264 32.358655,1.1457036 32.727273,0.02988792 Z" /><path
                         id="path714"
                         d="m 40.587797,-6.9838105 c -1.554172,0 -2.849315,1.2254047 -2.849315,3.5466998 0,2.3113324 1.205479,3.55666238 2.86924,3.55666238 0.926525,0 1.58406,-0.37858032 1.96264,-0.76712327 L 42.102118,-1.24533 c -0.388543,0.28891658 -0.816937,0.56787049 -1.464508,0.56787049 -1.066003,0 -1.892902,-0.77708589 -1.892902,-2.75965119 0,-2.0722291 0.86675,-2.7696139 1.902865,-2.7696139 0.478206,0 0.896637,0.1594022 1.325031,0.5080946 l 0.518057,-0.607721 c -0.547945,-0.4383562 -1.036115,-0.6774595 -1.902864,-0.6774595 z" /><path
                         id="path716"
                         d="m 45.469488,-5.3698629 c -1.494396,0 -2.351183,1.1257783 -2.351183,2.7496886 0,1.66376088 0.846824,2.73972598 2.34122,2.73972598 1.484433,0 2.34122,-1.12577828 2.34122,-2.74968858 0,-1.6637609 -0.836861,-2.739726 -2.331257,-2.739726 z m 0,0.7372354 c 0.866749,0 1.344956,0.6376089 1.344956,2.0024906 0,1.3748443 -0.478207,2.01245323 -1.354919,2.01245323 -0.876712,0 -1.354919,-0.63760893 -1.354919,-2.00249063 0,-1.3748443 0.488169,-2.0124532 1.364882,-2.0124532 z" /><path
                         id="path718"
                         d="m 50.709838,-5.3698629 c -1.085928,0 -1.892901,0.6077211 -1.892901,1.4445828 0,0.7372354 0.448318,1.2254047 1.584059,1.5242839 1.01619,0.2689913 1.275218,0.4682441 1.275218,0.9863013 0,0.49813204 -0.438356,0.79701123 -1.125778,0.79701123 -0.567871,0 -1.05604,-0.18929015 -1.474471,-0.50809463 l -0.488169,0.55790783 c 0.458281,0.39850559 1.09589,0.68742215 1.982565,0.68742215 1.066003,0 2.072229,-0.49813199 2.072229,-1.59402238 0,-0.9165629 -0.637609,-1.354919 -1.743462,-1.6338729 -0.846824,-0.2191781 -1.125778,-0.4184309 -1.125778,-0.8468244 0,-0.4184309 0.368618,-0.6874222 0.966376,-0.6874222 0.488169,0 0.896638,0.1494396 1.364882,0.4483188 l 0.388543,-0.5778331 c -0.498132,-0.3785803 -1.046078,-0.5977584 -1.783313,-0.5977584 z" /><path
                         id="path720"
                         d="m 59.158155,-5.3698629 c -0.707348,0 -1.185554,0.3785804 -1.564135,0.9464508 -0.199252,-0.5977584 -0.677459,-0.9464508 -1.325031,-0.9464508 -0.687422,0 -1.165629,0.3586551 -1.514321,0.886675 l -0.0797,-0.7671233 H 53.887918 V 0 h 0.916563 v -3.7260273 c 0.348693,-0.5579078 0.667497,-0.9265255 1.235367,-0.9265255 0.398506,0 0.737236,0.2291407 0.737236,1.0161893 V 0 h 0.916563 v -3.7260273 c 0.358655,-0.5579078 0.667497,-0.9265255 1.235367,-0.9265255 0.398506,0 0.737235,0.2291407 0.737235,1.0161893 V 0 h 0.916563 v -3.7658778 c 0,-0.9863014 -0.56787,-1.6039851 -1.424657,-1.6039851 z" /><path
                         id="path722"
                         d="m 62.804484,-7.7708591 c -0.378581,0 -0.637609,0.2689913 -0.637609,0.6276464 0,0.3486924 0.259028,0.6176836 0.637609,0.6176836 0.388543,0 0.647571,-0.2689912 0.647571,-0.6176836 0,-0.3586551 -0.259028,-0.6276464 -0.647571,-0.6276464 z m 0.468244,2.5205479 H 62.356165 V 0 h 0.916563 z" /><path
                         id="path724"
                         d="m 67.028643,-5.3698629 c -1.424658,0 -2.291408,1.1158157 -2.291408,2.7895392 0,1.69364876 0.876713,2.69987538 2.291408,2.69987538 0.607721,0 1.13574,-0.1992528 1.603985,-0.57783311 L 68.214197,-1.0560398 c -0.398506,0.25902862 -0.707348,0.39850557 -1.145704,0.39850557 -0.826899,0 -1.344956,-0.56787047 -1.344956,-1.94271477 0,-1.3648816 0.518057,-2.0124532 1.344956,-2.0124532 0.438356,0 0.767123,0.1295143 1.125778,0.3885429 l 0.438357,-0.5778331 c -0.48817,-0.4084682 -0.986302,-0.5678705 -1.603985,-0.5678705 z" /><path
                         id="path726"
                         d="m 76.234119,0 h 1.125778 l -1.853051,-3.0784557 c 0.986301,-0.2988792 1.484433,-0.8767123 1.484433,-1.8430884 0,-1.2851805 -0.896637,-1.9427147 -2.610211,-1.9427147 H 72.57783 V 0 h 0.946451 v -2.9090908 h 1.066002 z m -2.709838,-3.6363635 v -2.49066 h 0.846824 c 1.125778,0 1.613948,0.3486924 1.613948,1.2054794 0,0.9265255 -0.547946,1.2851806 -1.504359,1.2851806 z" /><path
                         id="path728"
                         d="m 81.952677,-1.2254047 v -2.4009962 c 0,-1.0958904 -0.577833,-1.743462 -1.843088,-1.743462 -0.587796,0 -1.165629,0.1195517 -1.813201,0.3586551 l 0.229141,0.6674968 c 0.537983,-0.1793275 1.026152,-0.2789539 1.414695,-0.2789539 0.727273,0 1.09589,0.2789539 1.09589,1.0361146 v 0.3885429 H 80.22914 c -1.464508,0 -2.311332,0.607721 -2.311332,1.7334993 0,0.93648819 0.627646,1.58405978 1.673723,1.58405978 0.637609,0 1.195517,-0.23910336 1.564135,-0.78704855 0.159402,0.51805727 0.498132,0.72727271 1.026152,0.78704855 l 0.209215,-0.63760895 c -0.268991,-0.0996264 -0.438356,-0.249066 -0.438356,-0.70734743 z m -2.15193,0.65753423 c -0.597759,0 -0.9066,-0.32876711 -0.9066,-0.94645083 0,-0.71731 0.488169,-1.0759651 1.454545,-1.0759651 h 0.687422 v 1.2054795 c -0.298879,0.54794516 -0.697385,0.81693643 -1.235367,0.81693643 z" /><path
                         id="path730"
                         d="M 87.62142,-5.2503112 H 86.674969 L 85.300125,-0.66749687 83.895393,-5.2503112 H 82.919054 L 84.682441,0 h 0.308842 c -0.298879,0.81693646 -0.597758,1.2254047 -1.663761,1.4047322 l 0.09963,0.7173101 C 84.881694,1.96264 85.499378,1.1457036 85.867995,0.02988792 Z" /></g><g
                       style="font-variant:normal;font-weight:normal;font-size:9.96264px;font-family:'Fira Math';-inkscape-font-specification:FiraMath-Regular;writing-mode:lr-tb;fill:#000000;fill-opacity:1;fill-rule:nonzero;stroke:none"
                       id="text34"
                       transform="matrix(1,0,0,-1,154.671,221.709)"
                       aria-label="(p,α,Fe,...)"><path
                         id="path733"
                         d="m 2.2515566,-7.7210459 c -0.9763387,1.384807 -1.85305101,2.5703611 -1.85305101,4.9315068 0,2.36114559 0.87671231,3.54669973 1.85305101,4.9315067 L 2.8293897,1.743462 C 1.9327521,0.41843087 1.354919,-0.65753423 1.354919,-2.7895391 c 0,-2.1419676 0.5778331,-3.2079701 1.4744707,-4.5330012 z" /><path
                         id="path735"
                         d="m 6.5853049,-5.3698629 c -0.5977584,0 -1.1656289,0.2889166 -1.5541718,0.8268991 L 4.9613946,-5.2503112 H 4.174346 V 2.1220423 L 5.0909089,2.0124532 v -2.49065991 c 0.3387298,0.40846823 0.8069738,0.59775839 1.3748443,0.59775839 1.354919,0 2.0622664,-1.15566618 2.0622664,-2.74968858 0,-1.6537982 -0.5479452,-2.739726 -1.9427147,-2.739726 z m -0.3387298,4.74221659 c -0.4782067,0 -0.8866749,-0.22914071 -1.1556662,-0.63760899 v -2.5603984 c 0.2789539,-0.4184309 0.7073474,-0.8169365 1.2652553,-0.8169365 0.7870485,0 1.1855541,0.6475716 1.1855541,2.0124533 0,1.3748443 -0.4582814,2.00249059 -1.2951432,2.00249059 z" /><path
                         id="path737"
                         d="m 10.331257,-1.2652553 c -0.3885425,0 -0.6874217,0.30884188 -0.6874217,0.68742219 0,0.23910336 0.109589,0.44831879 0.2789539,0.57783311 L 9.5242836,1.6537982 h 0.6575344 l 0.667497,-1.52428388 c 0.129514,-0.28891656 0.179327,-0.48816935 0.179327,-0.70734743 0,-0.37858031 -0.298879,-0.68742219 -0.697385,-0.68742219 z" /><path
                         id="path739"
                         d="m 15.760897,-5.3698629 c -1.325031,0 -2.002491,1.1656289 -2.002491,2.7895392 0,1.80323779 0.71731,2.69987538 1.912827,2.69987538 0.896637,0 1.364882,-0.66749687 1.633873,-1.49439598 l 0.08966,0.55790784 c 0.08966,0.56787046 0.498132,0.8767123 0.936488,0.94645078 l 0.318804,-0.75716063 C 18.351183,-0.73723535 18.241594,-0.88667494 18.191781,-1.1556662 L 17.932752,-2.49066 18.480697,-5.2503112 h -0.836861 l -0.259029,1.5043586 c -0.209216,-1.2054794 -0.757161,-1.6239103 -1.62391,-1.6239103 z m 0.04981,0.7272727 c 0.637609,0 1.05604,0.4184309 1.325031,1.9825654 -0.328767,1.72353666 -0.886675,2.05230377 -1.364882,2.05230377 -0.677459,0 -1.036114,-0.60772107 -1.036114,-1.97260267 0,-1.3449564 0.388543,-2.0622665 1.075965,-2.0622665 z" /><path
                         id="path741"
                         d="m 20.283935,-1.2652553 c -0.388543,0 -0.687422,0.30884188 -0.687422,0.68742219 0,0.23910336 0.109589,0.44831879 0.278954,0.57783311 l -0.398506,1.6537982 h 0.657535 l 0.667496,-1.52428388 c 0.129515,-0.28891656 0.179328,-0.48816935 0.179328,-0.70734743 0,-0.37858031 -0.298879,-0.68742219 -0.697385,-0.68742219 z" /><path
                         id="path743"
                         d="m 24.149439,0 h 0.946451 v -3.0186799 h 2.241594 V -3.7658778 H 25.09589 v -2.3412204 h 2.590286 l 0.10959,-0.7571606 h -3.646327 z" /><path
                         id="path745"
                         d="m 32.956414,-2.7795765 c 0,-1.603985 -0.747198,-2.5902864 -2.161893,-2.5902864 -1.354919,0 -2.181818,1.1656289 -2.181818,2.7995018 0,1.66376088 0.856787,2.68991278 2.321295,2.68991278 0.727272,0 1.315068,-0.249066 1.833125,-0.65753423 L 32.368618,-1.0859277 c -0.458282,0.31880443 -0.846824,0.45828139 -1.364882,0.45828139 -0.75716,0 -1.325031,-0.46824409 -1.414695,-1.68368609 h 3.347447 c 0.01,-0.1195517 0.01993,-0.2889166 0.01993,-0.4682441 z m -0.906601,-0.2092154 h -2.460772 c 0.06974,-1.1656289 0.52802,-1.6537983 1.225405,-1.6537983 0.826899,0 1.235367,0.5678705 1.235367,1.5940224 z" /><path
                         id="path747"
                         d="m 34.660026,-1.2652553 c -0.388543,0 -0.687422,0.30884188 -0.687422,0.68742219 0,0.23910336 0.109589,0.44831879 0.278954,0.57783311 l -0.398506,1.6537982 h 0.657535 l 0.667496,-1.52428388 c 0.129515,-0.28891656 0.179328,-0.48816935 0.179328,-0.70734743 0,-0.37858031 -0.298879,-0.68742219 -0.697385,-0.68742219 z" /><path
                         id="path749"
                         d="m 38.704857,-1.2652553 c -0.388543,0 -0.687423,0.30884188 -0.687423,0.68742219 0,0.38854295 0.29888,0.69738479 0.687423,0.69738479 0.398505,0 0.697384,-0.30884184 0.697384,-0.69738479 0,-0.37858031 -0.298879,-0.68742219 -0.697384,-0.68742219 z" /><path
                         id="path751"
                         d="m 41.09589,-1.2652553 c -0.388543,0 -0.687422,0.30884188 -0.687422,0.68742219 0,0.38854295 0.298879,0.69738479 0.687422,0.69738479 0.398505,0 0.697384,-0.30884184 0.697384,-0.69738479 0,-0.37858031 -0.298879,-0.68742219 -0.697384,-0.68742219 z" /><path
                         id="path753"
                         d="m 43.486923,-1.2652553 c -0.388543,0 -0.687422,0.30884188 -0.687422,0.68742219 0,0.38854295 0.298879,0.69738479 0.687422,0.69738479 0.398505,0 0.697385,-0.30884184 0.697385,-0.69738479 0,-0.37858031 -0.29888,-0.68742219 -0.697385,-0.68742219 z" /><path
                         id="path755"
                         d="m 45.668741,-7.7210459 -0.577834,0.3985056 c 0.896638,1.3250311 1.474471,2.3910336 1.474471,4.5330012 0,2.13200487 -0.577833,3.20796997 -1.474471,4.5330011 l 0.577834,0.3985056 c 0.976338,-1.38480697 1.853051,-2.57036111 1.853051,-4.9315067 0,-2.3611457 -0.876713,-3.5466998 -1.853051,-4.9315068 z" /></g><g
                       transform="translate(64.34,221.709)"
                       id="g36" /></g></g><g
                   transform="translate(69.13,-4.693)"
                   id="g38" /></g></g><g
               id="g40" /><g
               id="g42" /><g
               id="g44"><g
                 transform="translate(-29.906,-65.973)"
                 id="g46"><g
                   id="g48"><g
                     transform="translate(-103.564,-151.043)"
                     id="g50"><g
                       style="font-variant:normal;font-weight:normal;font-size:9.96264px;font-family:'Fira Math';-inkscape-font-specification:FiraMath-Regular;writing-mode:lr-tb;fill:#000000;fill-opacity:1;fill-rule:nonzero;stroke:none"
                       id="text54"
                       transform="matrix(1,0,0,-1,103.564,151.043)"
                       aria-label="π"><path
                         id="path758"
                         d="m 5.6288915,-4.5031132 v -0.747198 H 1.2154421 c -0.48816939,0 -0.70734747,0.019925 -1.0660025,0.1494396 l 0.15940223,0.7173101 C 0.63760895,-4.4732253 0.76712327,-4.4931506 1.1955168,-4.4931506 V 0 h 0.9165628 v -4.4931506 l 1.8132005,-0.00996 v 3.2179327 c 0,0.83686171 0.2689913,1.20547938 1.0859277,1.40473218 L 5.3001244,-0.56787047 C 4.9713573,-0.71731007 4.8418429,-0.8767123 4.8418429,-1.3947696 v -3.1083436 z" /></g><g
                       style="font-variant:normal;font-weight:normal;font-size:7.1731px;font-family:'Fira Math';-inkscape-font-specification:FiraMath-Regular;writing-mode:lr-tb;fill:#000000;fill-opacity:1;fill-rule:nonzero;stroke:none"
                       id="text58"
                       transform="matrix(1,0,0,-1,109.492,155.027)"
                       aria-label="+"><path
                         id="path761"
                         d="M 2.0945452,-3.3570108 H 1.4920048 v 1.075965 H 0.4447322 v 0.5451556 h 1.0472726 v 1.075965 h 0.6025404 v -1.075965 H 3.1418178 V -2.2810458 H 2.0945452 Z" /></g><g
                       transform="translate(103.564,151.043)"
                       id="g60" /></g></g><g
                   transform="translate(29.906,65.973)"
                   id="g62" /></g></g><g
               id="g64" /><g
               id="g66" /><g
               id="g68" /><g
               id="g70" /><g
               id="g72" /><g
               id="g74" /><g
               id="g76" /><g
               id="g78" /><g
               id="g80" /><g
               id="g82" /><g
               id="g84" /><g
               id="g86" /><g
               id="g88" /><g
               id="g90" /><g
               id="g92" /><g
               id="g94" /><g
               id="g96" /><g
               id="g98"><g
                 id="g100"><g
                   id="g102"><path
                     id="path104"
                     style="fill:none;stroke:#000000;stroke-width:0.3985;stroke-linecap:butt;stroke-linejoin:miter;stroke-miterlimit:10;stroke-dasharray:none;stroke-opacity:1"
                     d="M 0,-0.96826 V -37.42293" /></g></g><g
                 id="g106"><g
                   id="g108"><path
                     id="path110"
                     style="fill:none;stroke:#000000;stroke-width:0.3985;stroke-linecap:butt;stroke-linejoin:miter;stroke-miterlimit:10;stroke-dasharray:none;stroke-opacity:1"
                     d="M 0,-37.42293 -62.37097,-74.84496" /></g><g
                   id="g112"><g
                     transform="translate(-45.058,-52.494)"
                     id="g114"><g
                       id="g116"><g
                         transform="translate(-88.412,-164.522)"
                         id="g118"><g
                           style="font-variant:normal;font-weight:normal;font-size:9.96264px;font-family:'Fira Math';-inkscape-font-specification:FiraMath-Regular;writing-mode:lr-tb;fill:#000000;fill-opacity:1;fill-rule:nonzero;stroke:none"
                           id="text122"
                           transform="matrix(1,0,0,-1,88.412,164.522)"
                           aria-label="π"><path
                             id="path764"
                             d="m 5.6288915,-4.5031132 v -0.747198 H 1.2154421 c -0.48816939,0 -0.70734747,0.019925 -1.0660025,0.1494396 l 0.15940223,0.7173101 C 0.63760895,-4.4732253 0.76712327,-4.4931506 1.1955168,-4.4931506 V 0 h 0.9165628 v -4.4931506 l 1.8132005,-0.00996 v 3.2179327 c 0,0.83686171 0.2689913,1.20547938 1.0859277,1.40473218 L 5.3001244,-0.56787047 C 4.9713573,-0.71731007 4.8418429,-0.8767123 4.8418429,-1.3947696 v -3.1083436 z" /></g><g
                           style="font-variant:normal;font-weight:normal;font-size:7.1731px;font-family:'Fira Math';-inkscape-font-specification:FiraMath-Regular;writing-mode:lr-tb;fill:#000000;fill-opacity:1;fill-rule:nonzero;stroke:none"
                           id="text126"
                           transform="matrix(1,0,0,-1,94.34,168.507)"
                           aria-label="0"><path
                             id="path767"
                             d="m 2.008468,-5.0283431 c -1.075965,0 -1.6067744,0.8822913 -1.6067744,2.5536236 0,1.6713323 0.5308094,2.5607967 1.6067744,2.5607967 1.075965,0 1.6067744,-0.8894644 1.6067744,-2.5607967 0,-1.6641592 -0.5308094,-2.5536236 -1.6067744,-2.5536236 z m 0,0.5236363 c 0.5953673,0 0.9181568,0.5451556 0.9181568,2.0299873 0,1.4920048 -0.3227895,2.0371604 -0.9181568,2.0371604 -0.6025404,0 -0.9181568,-0.5451556 -0.9181568,-2.0371604 0,-1.4848317 0.3156164,-2.0299873 0.9181568,-2.0299873 z" /></g><g
                           transform="translate(88.412,164.522)"
                           id="g128" /></g></g><g
                       transform="translate(45.058,52.494)"
                       id="g130" /></g></g></g><g
                 id="g132"><g
                   id="g134"><path
                     id="path136"
                     style="fill:none;stroke:#000000;stroke-width:0.3985;stroke-linecap:butt;stroke-linejoin:miter;stroke-miterlimit:10;stroke-dasharray:none;stroke-opacity:1"
                     d="M 0,-37.42293 -17.6979,-55.11954" /></g></g><g
                 id="g138"><g
                   id="g140"><path
                     id="path142"
                     style="fill:none;stroke:#000000;stroke-width:0.3985;stroke-linecap:butt;stroke-linejoin:miter;stroke-miterlimit:10;stroke-dasharray:none;stroke-opacity:1"
                     d="M 0,-37.42293 -12.47397,-74.84496" /></g></g><g
                 id="g144"><g
                   id="g146"><path
                     id="path148"
                     style="fill:none;stroke:#000000;stroke-width:0.3985;stroke-linecap:butt;stroke-linejoin:miter;stroke-miterlimit:10;stroke-dasharray:none;stroke-opacity:1"
                     d="m 0,-37.42293 -12.47397,-81.0815" /></g></g><g
                 id="g150"><g
                   id="g152"><path
                     id="path154"
                     style="fill:none;stroke:#000000;stroke-width:0.3985;stroke-linecap:butt;stroke-linejoin:miter;stroke-miterlimit:10;stroke-dasharray:none;stroke-opacity:1"
                     d="M 0,-37.42293 6.23746,-87.31895" /></g></g><g
                 id="g156"><g
                   id="g158"><path
                     id="path160"
                     style="fill:none;stroke:#000000;stroke-width:0.3985;stroke-linecap:butt;stroke-linejoin:miter;stroke-miterlimit:10;stroke-dasharray:none;stroke-opacity:1"
                     d="M 0,-37.42293 56.13345,-99.79391" /></g><g
                   id="g162"><g
                     transform="translate(31.586,-64.968)"
                     id="g164"><g
                       id="g166"><g
                         transform="translate(-165.056,-152.048)"
                         id="g168"><g
                           style="font-variant:normal;font-weight:normal;font-size:9.96264px;font-family:'Fira Math';-inkscape-font-specification:FiraMath-Regular;writing-mode:lr-tb;fill:#000000;fill-opacity:1;fill-rule:nonzero;stroke:none"
                           id="text172"
                           transform="matrix(1,0,0,-1,165.056,152.048)"
                           aria-label="π"><path
                             id="path770"
                             d="m 5.6288915,-4.5031132 v -0.747198 H 1.2154421 c -0.48816939,0 -0.70734747,0.019925 -1.0660025,0.1494396 l 0.15940223,0.7173101 C 0.63760895,-4.4732253 0.76712327,-4.4931506 1.1955168,-4.4931506 V 0 h 0.9165628 v -4.4931506 l 1.8132005,-0.00996 v 3.2179327 c 0,0.83686171 0.2689913,1.20547938 1.0859277,1.40473218 L 5.3001244,-0.56787047 C 4.9713573,-0.71731007 4.8418429,-0.8767123 4.8418429,-1.3947696 v -3.1083436 z" /></g><g
                           style="font-variant:normal;font-weight:normal;font-size:7.1731px;font-family:'Fira Math';-inkscape-font-specification:FiraMath-Regular;writing-mode:lr-tb;fill:#000000;fill-opacity:1;fill-rule:nonzero;stroke:none"
                           id="text176"
                           transform="matrix(1,0,0,-1,170.984,156.032)"
                           aria-label="−"><path
                             id="path773"
                             d="M 0.4447322,-1.7358902 H 3.1418178 V -2.2810458 H 0.4447322 Z" /></g><g
                           transform="translate(165.056,152.048)"
                           id="g178" /></g></g><g
                       transform="translate(-31.586,64.968)"
                       id="g180" /></g></g></g><g
                 id="g182"><g
                   id="g184"><g
                     id="g186"><path
                       id="path188"
                       style="fill:none;stroke:#cc0000;stroke-width:0.3985;stroke-linecap:butt;stroke-linejoin:miter;stroke-miterlimit:10;stroke-dasharray:none;stroke-opacity:1"
                       d="m -62.37097,-74.84496 -0.51953,-0.2078 -0.2883,-0.78592 -0.35027,-0.63102 -0.45756,-0.36271 -0.58152,-0.0529 -0.68881,0.21539 -0.75078,0.37028 -0.75077,0.37029 -0.68882,0.21541 -0.58149,-0.05291 -0.45758,-0.36271 -0.35027,-0.63103 -0.2883,-0.78591 -0.2883,-0.78591 -0.35028,-0.63103 -0.45757,-0.36273 -0.58149,-0.0529 -0.68881,0.2154 -0.7508,0.37029 -0.75076,0.37028 -0.68882,0.2154 -0.5815,-0.0529 -0.45757,-0.36272 -0.35027,-0.63101 -0.2883,-0.78592 -0.2883,-0.78591 -0.35026,-0.63102 -0.45758,-0.36272 -0.5815,-0.05292 -0.68882,0.2154 -0.75077,0.3703 -0.75078,0.37028 -0.68881,0.21539 -0.58151,-0.0529 -0.45757,-0.36272 -0.35026,-0.63101 -0.2883,-0.78592 -0.28832,-0.7859 -0.35025,-0.63103 -0.45758,-0.36271 -0.5815,-0.05291 -0.68882,0.2154 -0.75077,0.37027 -0.75077,0.3703 -0.68882,0.21539 -0.58151,-0.05291 -0.45756,-0.36271 -0.35027,-0.63103 -0.2883,-0.7859 -0.2883,-0.78592 -0.35026,-0.63101 -0.45758,-0.36272 -0.5815,-0.0529 -0.68881,0.21539 -0.75078,0.37029 -0.75078,0.37028 -0.68882,0.2154 -0.58149,-0.05291 -0.58975,-1.5771" /></g><g
                     id="g190"><g
                       transform="translate(-86.284,-75.409)"
                       id="g192"><g
                         id="g194"><g
                           transform="translate(-47.186,-141.607)"
                           id="g196"><g
                             style="font-variant:normal;font-weight:normal;font-size:9.96264px;font-family:'Fira Math';-inkscape-font-specification:FiraMath-Regular;writing-mode:lr-tb;fill:#000000;fill-opacity:1;fill-rule:nonzero;stroke:none"
                             id="text200"
                             transform="matrix(1,0,0,-1,47.186,141.607)"
                             aria-label="γ"><path
                               id="path776"
                               d="m 0.81693646,-5.3599002 -0.86674966,0.3287671 c 0.68742215,0.7671233 1.2154421,2.3113324 1.9427148,4.9315067 -0.3686177,0.86674967 -0.3586551,1.4645081 0.039851,2.2515566 L 2.6600248,2.0124532 C 2.5006226,1.1158157 2.5205479,0.52801991 2.8094644,-0.21917808 L 4.702366,-5.1706101 3.7758405,-5.3599002 2.3910336,-1.0560398 C 1.9726027,-3.3275217 1.2851805,-4.7422165 0.81693646,-5.3599002 Z" /></g><g
                             transform="translate(47.186,141.607)"
                             id="g202" /></g></g><g
                         transform="translate(86.284,75.409)"
                         id="g204" /></g></g></g></g><g
                 id="g206"><g
                   id="g208"><g
                     id="g210"><path
                       id="path212"
                       style="fill:none;stroke:#cc0000;stroke-width:0.3985;stroke-linecap:butt;stroke-linejoin:miter;stroke-miterlimit:10;stroke-dasharray:none;stroke-opacity:1"
                       d="m -62.37097,-74.84496 -0.25973,-0.43289 0.27415,-0.75326 0.13112,-0.66741 -0.11669,-0.51875 -0.40281,-0.34705 -0.65061,-0.19838 -0.79366,-0.11254 -0.79365,-0.11256 -0.65062,-0.19837 -0.4028,-0.34706 -0.1167,-0.51874 0.13113,-0.66742 0.27416,-0.75325 0.27417,-0.75325 0.13112,-0.66742 -0.1167,-0.51875 -0.40279,-0.34705 -0.65063,-0.19838 -0.79364,-0.11255 -0.79367,-0.11255 -0.65062,-0.19838 -0.40279,-0.34706 -0.1167,-0.51872 0.13112,-0.66743 0.27416,-0.75325 0.27417,-0.75325 0.13113,-0.66742 -0.1167,-0.51876 -0.4028,-0.34704 -0.65062,-0.19838 -0.79366,-0.11254 -0.79367,-0.11256 -0.6506,-0.19836 -0.4028,-0.34706 -0.1167,-0.51874 0.13113,-0.66744 0.27416,-0.75323 0.27417,-0.75327 0.13112,-0.6674 -0.1167,-0.51876 -0.40279,-0.34704 -0.65063,-0.1984 -0.79366,-0.11253 -0.79364,-0.11256 -0.65064,-0.19837 -0.40278,-0.34706 -0.11672,-0.51874 0.13114,-0.66742 0.27417,-0.75324 0.27415,-0.75327 0.13114,-0.66741 -0.11672,-0.51875 -0.40278,-0.34705 -0.65062,-0.19837 -0.79366,-0.11255 -0.79365,-0.11255 -0.65064,-0.19838 -0.40279,-0.34707 -0.11669,-0.51873 0.13113,-0.66742 0.27415,-0.75325 0.27416,-0.75325 0.13113,-0.66742 -0.1167,-0.51875 -0.4028,-0.34705 -0.6506,-0.19838 -0.79367,-0.11255 -0.79366,-0.11255 -0.65061,-0.19836 -0.40281,-0.34706 0.5387,-1.52323" /></g><g
                     id="g214"><g
                       transform="translate(-68.206,-99.316)"
                       id="g216"><g
                         id="g218"><g
                           transform="translate(-65.264,-117.7)"
                           id="g220"><g
                             style="font-variant:normal;font-weight:normal;font-size:9.96264px;font-family:'Fira Math';-inkscape-font-specification:FiraMath-Regular;writing-mode:lr-tb;fill:#000000;fill-opacity:1;fill-rule:nonzero;stroke:none"
                             id="text224"
                             transform="matrix(1,0,0,-1,65.264,117.7)"
                             aria-label="γ"><path
                               id="path779"
                               d="m 0.81693646,-5.3599002 -0.86674966,0.3287671 c 0.68742215,0.7671233 1.2154421,2.3113324 1.9427148,4.9315067 -0.3686177,0.86674967 -0.3586551,1.4645081 0.039851,2.2515566 L 2.6600248,2.0124532 C 2.5006226,1.1158157 2.5205479,0.52801991 2.8094644,-0.21917808 L 4.702366,-5.1706101 3.7758405,-5.3599002 2.3910336,-1.0560398 C 1.9726027,-3.3275217 1.2851805,-4.7422165 0.81693646,-5.3599002 Z" /></g><g
                             transform="translate(65.264,117.7)"
                             id="g226" /></g></g><g
                         transform="translate(68.206,99.316)"
                         id="g228" /></g></g></g></g><g
                 id="g230"><g
                   id="g232"><path
                     id="path234"
                     style="fill:none;stroke:#000000;stroke-width:0.3985;stroke-linecap:butt;stroke-linejoin:miter;stroke-miterlimit:10;stroke-dasharray:none;stroke-opacity:1"
                     d="m -12.47397,-118.50443 -43.65948,-12.475" /></g></g><g
                 id="g236"><g
                   id="g238"><path
                     id="path240"
                     style="fill:none;stroke:#000000;stroke-width:0.3985;stroke-linecap:butt;stroke-linejoin:miter;stroke-miterlimit:10;stroke-dasharray:none;stroke-opacity:1"
                     d="m -12.47397,-118.50443 -68.60846,-31.18551" /></g></g><g
                 id="g242"><g
                   id="g244"><path
                     id="path246"
                     style="fill:none;stroke:#000000;stroke-width:0.3985;stroke-linecap:butt;stroke-linejoin:miter;stroke-miterlimit:10;stroke-dasharray:none;stroke-opacity:1"
                     d="m -12.47397,-118.50443 -31.18548,-24.94898" /></g></g><g
                 id="g248"><g
                   id="g250"><path
                     id="path252"
                     style="fill:none;stroke:#000000;stroke-width:0.3985;stroke-linecap:butt;stroke-linejoin:miter;stroke-miterlimit:10;stroke-dasharray:none;stroke-opacity:1"
                     d="m -12.47397,-118.50443 -12.47398,-31.18551" /></g><g
                   id="g254"><g
                     transform="translate(-15.191,-144.957)"
                     id="g256"><g
                       id="g258"><g
                         transform="translate(-118.279,-72.059)"
                         id="g260"><g
                           style="font-variant:normal;font-weight:normal;font-size:9.96264px;font-family:'Fira Math';-inkscape-font-specification:FiraMath-Regular;writing-mode:lr-tb;fill:#000000;fill-opacity:1;fill-rule:nonzero;stroke:none"
                           id="text264"
                           transform="matrix(1,0,0,-1,118.279,72.059)"
                           aria-label="π"><path
                             id="path782"
                             d="m 5.6288915,-4.5031132 v -0.747198 H 1.2154421 c -0.48816939,0 -0.70734747,0.019925 -1.0660025,0.1494396 l 0.15940223,0.7173101 C 0.63760895,-4.4732253 0.76712327,-4.4931506 1.1955168,-4.4931506 V 0 h 0.9165628 v -4.4931506 l 1.8132005,-0.00996 v 3.2179327 c 0,0.83686171 0.2689913,1.20547938 1.0859277,1.40473218 L 5.3001244,-0.56787047 C 4.9713573,-0.71731007 4.8418429,-0.8767123 4.8418429,-1.3947696 v -3.1083436 z" /></g><g
                           style="font-variant:normal;font-weight:normal;font-size:7.1731px;font-family:'Fira Math';-inkscape-font-specification:FiraMath-Regular;writing-mode:lr-tb;fill:#000000;fill-opacity:1;fill-rule:nonzero;stroke:none"
                           id="text268"
                           transform="matrix(1,0,0,-1,124.207,76.044)"
                           aria-label="+"><path
                             id="path785"
                             d="M 2.0945452,-3.3570108 H 1.4920048 v 1.075965 H 0.4447322 v 0.5451556 h 1.0472726 v 1.075965 h 0.6025404 v -1.075965 H 3.1418178 V -2.2810458 H 2.0945452 Z" /></g><g
                           transform="translate(118.279,72.059)"
                           id="g270" /></g></g><g
                       transform="translate(15.191,144.957)"
                       id="g272" /></g></g></g><g
                 id="g274"><g
                   id="g276"><path
                     id="path278"
                     style="fill:none;stroke:#000000;stroke-width:0.3985;stroke-linecap:butt;stroke-linejoin:miter;stroke-miterlimit:10;stroke-dasharray:none;stroke-opacity:1"
                     d="m -12.47397,-118.50443 24.94794,-31.18551" /></g><g
                   id="g280"><g
                     transform="translate(3.52,-130.456)"
                     id="g282"><g
                       id="g284"><g
                         transform="translate(-136.99,-86.56)"
                         id="g286"><g
                           style="font-variant:normal;font-weight:normal;font-size:9.96264px;font-family:'Fira Math';-inkscape-font-specification:FiraMath-Regular;writing-mode:lr-tb;fill:#000000;fill-opacity:1;fill-rule:nonzero;stroke:none"
                           id="text290"
                           transform="matrix(1,0,0,-1,136.99,86.56)"
                           aria-label="π"><path
                             id="path788"
                             d="m 5.6288915,-4.5031132 v -0.747198 H 1.2154421 c -0.48816939,0 -0.70734747,0.019925 -1.0660025,0.1494396 l 0.15940223,0.7173101 C 0.63760895,-4.4732253 0.76712327,-4.4931506 1.1955168,-4.4931506 V 0 h 0.9165628 v -4.4931506 l 1.8132005,-0.00996 v 3.2179327 c 0,0.83686171 0.2689913,1.20547938 1.0859277,1.40473218 L 5.3001244,-0.56787047 C 4.9713573,-0.71731007 4.8418429,-0.8767123 4.8418429,-1.3947696 v -3.1083436 z" /></g><g
                           style="font-variant:normal;font-weight:normal;font-size:7.1731px;font-family:'Fira Math';-inkscape-font-specification:FiraMath-Regular;writing-mode:lr-tb;fill:#000000;fill-opacity:1;fill-rule:nonzero;stroke:none"
                           id="text294"
                           transform="matrix(1,0,0,-1,142.918,90.544)"
                           aria-label="0"><path
                             id="path791"
                             d="m 2.008468,-5.0283431 c -1.075965,0 -1.6067744,0.8822913 -1.6067744,2.5536236 0,1.6713323 0.5308094,2.5607967 1.6067744,2.5607967 1.075965,0 1.6067744,-0.8894644 1.6067744,-2.5607967 0,-1.6641592 -0.5308094,-2.5536236 -1.6067744,-2.5536236 z m 0,0.5236363 c 0.5953673,0 0.9181568,0.5451556 0.9181568,2.0299873 0,1.4920048 -0.3227895,2.0371604 -0.9181568,2.0371604 -0.6025404,0 -0.9181568,-0.5451556 -0.9181568,-2.0371604 0,-1.4848317 0.3156164,-2.0299873 0.9181568,-2.0299873 z" /></g><g
                           transform="translate(136.99,86.56)"
                           id="g296" /></g></g><g
                       transform="translate(-3.52,130.456)"
                       id="g298" /></g></g></g><g
                 id="g300"><g
                   id="g302"><path
                     id="path304"
                     style="fill:none;stroke:#57caff;stroke-width:0.3985;stroke-linecap:butt;stroke-linejoin:miter;stroke-miterlimit:10;stroke-dasharray:none;stroke-opacity:1"
                     d="M 56.13345,-99.79391 99.79391,-212.06096" /><g
                     id="g306"><g
                       transform="translate(81.482,-150.284)"
                       id="g308"><g
                         id="g310"><g
                           transform="translate(-214.952,-66.732)"
                           id="g312"><g
                             style="font-variant:normal;font-weight:normal;font-size:9.96264px;font-family:'Fira Math';-inkscape-font-specification:FiraMath-Regular;writing-mode:lr-tb;fill:#000000;fill-opacity:1;fill-rule:nonzero;stroke:none"
                             id="text316"
                             transform="matrix(1,0,0,-1,214.952,66.732)"
                             aria-label="μ"><path
                               id="path794"
                               d="m 4.8518056,-1.7932752 v -3.457036 H 3.9352427 v 3.6264009 c -0.358655,0.70734744 -0.8169364,0.95641343 -1.2851805,0.95641343 -0.4682441,0 -0.7870486,-0.22914071 -0.7870486,-0.88667493 V -5.2503112 H 0.94645078 V 2.1220423 L 1.853051,2.0124532 V 0.95641342 c 0,-0.62764631 -0.049813,-0.96637606 -0.1693649,-1.33499373 0.2191781,0.35865503 0.498132,0.49813199 0.9564134,0.49813199 0.6176837,0 1.0958904,-0.49813199 1.3748443,-0.9763387 v 0.009963 c 0.039851,0.33872975 0.069738,0.58779574 0.2391034,0.96637606 L 5.1108342,0 C 4.9713573,-0.42839351 4.8518056,-1.0062266 4.8518056,-1.7932752 Z" /></g><g
                             style="font-variant:normal;font-weight:normal;font-size:7.1731px;font-family:'Fira Math';-inkscape-font-specification:FiraMath-Regular;writing-mode:lr-tb;fill:#000000;fill-opacity:1;fill-rule:nonzero;stroke:none"
                             id="text320"
                             transform="matrix(1,0,0,-1,220.811,70.717)"
                             aria-label="−"><path
                               id="path797"
                               d="M 0.4447322,-1.7358902 H 3.1418178 V -2.2810458 H 0.4447322 Z" /></g><g
                             transform="translate(214.952,66.732)"
                             id="g322" /></g></g><g
                         transform="translate(-81.482,150.284)"
                         id="g324" /></g></g></g></g><g
                 id="g326"><g
                   id="g328"><g
                     id="g330"><path
                       id="path332"
                       style="fill:none;stroke:#000000;stroke-width:0.3985;stroke-linecap:butt;stroke-linejoin:miter;stroke-miterlimit:10;stroke-dasharray:2.98883, 2.98883;stroke-dashoffset:0;stroke-opacity:1"
                       d="m 56.13345,-99.79391 37.42299,-24.94806" /></g></g><g
                   id="g334"><g
                     transform="translate(78.364,-103.732)"
                     id="g336"><g
                       id="g338"><g
                         transform="translate(-211.834,-113.284)"
                         id="g340"><g
                           style="font-variant:normal;font-weight:normal;font-size:9.96264px;font-family:'Fira Math';-inkscape-font-specification:FiraMath-Regular;writing-mode:lr-tb;fill:#000000;fill-opacity:1;fill-rule:nonzero;stroke:none"
                           id="text344"
                           transform="matrix(1,0,0,-1,215.819,113.393)"
                           aria-label="̄"><path
                             id="path800"
                             d="M -0.29887919,-6.6450808 V -7.3325029 H -3.0186799 v 0.6874221 z" /></g><g
                           style="font-variant:normal;font-weight:normal;font-size:9.96264px;font-family:'Fira Math';-inkscape-font-specification:FiraMath-Regular;writing-mode:lr-tb;fill:#000000;fill-opacity:1;fill-rule:nonzero;stroke:none"
                           id="text348"
                           transform="matrix(1,0,0,-1,211.834,113.284)"
                           aria-label="ν"><path
                             id="path803"
                             d="m 0.8268991,-5.3599002 -0.8767123,0.3287671 C 0.63760895,-4.2640098 1.105853,-2.6998754 1.7932752,0 h 1.105853 L 4.702366,-5.1706101 3.8057284,-5.3599002 2.3711083,-0.77708591 C 1.8430884,-3.2976338 1.3250311,-4.7123286 0.8268991,-5.3599002 Z" /></g><g
                           style="font-variant:normal;font-weight:normal;font-size:7.1731px;font-family:'Fira Math';-inkscape-font-specification:FiraMath-Regular;writing-mode:lr-tb;fill:#000000;fill-opacity:1;fill-rule:nonzero;stroke:none"
                           id="text352"
                           transform="matrix(1,0,0,-1,216.636,109.797)"
                           aria-label="μ"><path
                             id="path806"
                             d="M 3.4932997,-1.291158 V -3.7802237 H 2.8333745 v 2.6110084 c -0.2582316,0.5092901 -0.5881942,0.6886176 -0.9253299,0.6886176 -0.3371357,0 -0.5666749,-0.1649813 -0.5666749,-0.6384059 V -3.7802237 H 0.6814445 v 5.308094 L 1.3341966,1.4489662 V 0.6886176 c 0,-0.4519053 -0.035866,-0.6957907 -0.1219427,-0.9611954 0.1578082,0.2582316 0.358655,0.358655 0.6886176,0.358655 0.4447322,0 0.789041,-0.358655 0.9898878,-0.7029638 v 0.007173 c 0.028692,0.2438854 0.050212,0.4232129 0.1721544,0.6957907 L 3.6798003,0 C 3.5793769,-0.3084433 3.4932997,-0.7244831 3.4932997,-1.291158 Z" /></g><g
                           transform="translate(211.834,113.284)"
                           id="g354" /></g></g><g
                       transform="translate(-78.364,103.732)"
                       id="g356" /></g></g></g><g
                 id="g358"><g
                   id="g360"><path
                     id="path362"
                     style="fill:none;stroke:#57caff;stroke-width:0.3985;stroke-linecap:butt;stroke-linejoin:miter;stroke-miterlimit:10;stroke-dasharray:none;stroke-opacity:1"
                     d="m -24.94795,-149.68994 -37.42302,-43.66048" /><g
                     id="g364"><g
                       transform="translate(-57.032,-165.876)"
                       id="g366"><g
                         id="g368"><g
                           transform="translate(-76.438,-51.14)"
                           id="g370"><g
                             style="font-variant:normal;font-weight:normal;font-size:9.96264px;font-family:'Fira Math';-inkscape-font-specification:FiraMath-Regular;writing-mode:lr-tb;fill:#000000;fill-opacity:1;fill-rule:nonzero;stroke:none"
                             id="text374"
                             transform="matrix(1,0,0,-1,76.438,51.14)"
                             aria-label="μ"><path
                               id="path809"
                               d="m 4.8518056,-1.7932752 v -3.457036 H 3.9352427 v 3.6264009 c -0.358655,0.70734744 -0.8169364,0.95641343 -1.2851805,0.95641343 -0.4682441,0 -0.7870486,-0.22914071 -0.7870486,-0.88667493 V -5.2503112 H 0.94645078 V 2.1220423 L 1.853051,2.0124532 V 0.95641342 c 0,-0.62764631 -0.049813,-0.96637606 -0.1693649,-1.33499373 0.2191781,0.35865503 0.498132,0.49813199 0.9564134,0.49813199 0.6176837,0 1.0958904,-0.49813199 1.3748443,-0.9763387 v 0.009963 c 0.039851,0.33872975 0.069738,0.58779574 0.2391034,0.96637606 L 5.1108342,0 C 4.9713573,-0.42839351 4.8518056,-1.0062266 4.8518056,-1.7932752 Z" /></g><g
                             style="font-variant:normal;font-weight:normal;font-size:7.1731px;font-family:'Fira Math';-inkscape-font-specification:FiraMath-Regular;writing-mode:lr-tb;fill:#000000;fill-opacity:1;fill-rule:nonzero;stroke:none"
                             id="text378"
                             transform="matrix(1,0,0,-1,82.296,55.124)"
                             aria-label="+"><path
                               id="path812"
                               d="M 2.0945452,-3.3570108 H 1.4920048 v 1.075965 H 0.4447322 v 0.5451556 h 1.0472726 v 1.075965 h 0.6025404 v -1.075965 H 3.1418178 V -2.2810458 H 2.0945452 Z" /></g><g
                             transform="translate(76.438,51.14)"
                             id="g380" /></g></g><g
                         transform="translate(57.032,165.876)"
                         id="g382" /></g></g></g></g><g
                 id="g384"><g
                   id="g386"><g
                     id="g388"><path
                       id="path390"
                       style="fill:none;stroke:#000000;stroke-width:0.3985;stroke-linecap:butt;stroke-linejoin:miter;stroke-miterlimit:10;stroke-dasharray:2.98883, 2.98883;stroke-dashoffset:0;stroke-opacity:1"
                       d="m -24.94795,-149.68994 12.47398,-49.89699" /></g></g><g
                   id="g392"><g
                     transform="translate(-15.191,-166.102)"
                     id="g394"><g
                       id="g396"><g
                         transform="translate(-118.279,-50.914)"
                         id="g398"><g
                           style="font-variant:normal;font-weight:normal;font-size:9.96264px;font-family:'Fira Math';-inkscape-font-specification:FiraMath-Regular;writing-mode:lr-tb;fill:#000000;fill-opacity:1;fill-rule:nonzero;stroke:none"
                           id="text402"
                           transform="matrix(1,0,0,-1,118.279,50.914)"
                           aria-label="ν"><path
                             id="path815"
                             d="m 0.8268991,-5.3599002 -0.8767123,0.3287671 C 0.63760895,-4.2640098 1.105853,-2.6998754 1.7932752,0 h 1.105853 L 4.702366,-5.1706101 3.8057284,-5.3599002 2.3711083,-0.77708591 C 1.8430884,-3.2976338 1.3250311,-4.7123286 0.8268991,-5.3599002 Z" /></g><g
                           style="font-variant:normal;font-weight:normal;font-size:7.1731px;font-family:'Fira Math';-inkscape-font-specification:FiraMath-Regular;writing-mode:lr-tb;fill:#000000;fill-opacity:1;fill-rule:nonzero;stroke:none"
                           id="text406"
                           transform="matrix(1,0,0,-1,123.081,47.427)"
                           aria-label="μ"><path
                             id="path818"
                             d="M 3.4932997,-1.291158 V -3.7802237 H 2.8333745 v 2.6110084 c -0.2582316,0.5092901 -0.5881942,0.6886176 -0.9253299,0.6886176 -0.3371357,0 -0.5666749,-0.1649813 -0.5666749,-0.6384059 V -3.7802237 H 0.6814445 v 5.308094 L 1.3341966,1.4489662 V 0.6886176 c 0,-0.4519053 -0.035866,-0.6957907 -0.1219427,-0.9611954 0.1578082,0.2582316 0.358655,0.358655 0.6886176,0.358655 0.4447322,0 0.789041,-0.358655 0.9898878,-0.7029638 v 0.007173 c 0.028692,0.2438854 0.050212,0.4232129 0.1721544,0.6957907 L 3.6798003,0 C 3.5793769,-0.3084433 3.4932997,-0.7244831 3.4932997,-1.291158 Z" /></g><g
                           transform="translate(118.279,50.914)"
                           id="g408" /></g></g><g
                       transform="translate(15.191,166.102)"
                       id="g410" /></g></g></g><g
                 id="g412"><g
                   id="g414"><g
                     id="g416"><path
                       id="path418"
                       style="fill:none;stroke:#cc0000;stroke-width:0.3985;stroke-linecap:butt;stroke-linejoin:miter;stroke-miterlimit:10;stroke-dasharray:none;stroke-opacity:1"
                       d="m 12.47397,-149.68994 0.25975,-0.43289 0.79364,-0.11255 0.65064,-0.19837 0.40278,-0.34705 0.11672,-0.51875 -0.13114,-0.66743 -0.27417,-0.75325 -0.27415,-0.75325 -0.13114,-0.66742 0.11672,-0.51875 0.40278,-0.34705 0.65062,-0.19838 0.79366,-0.11253 0.79365,-0.11257 0.65064,-0.19836 0.40278,-0.34706 0.1167,-0.51874 -0.13112,-0.66743 -0.27417,-0.75324 -0.27415,-0.75326 -0.13113,-0.66741 0.11668,-0.51875 0.40282,-0.34705 0.6506,-0.19839 0.79367,-0.11253 0.79365,-0.11257 0.65061,-0.19836 0.40282,-0.34707 0.11668,-0.51873 -0.13111,-0.66742 -0.27418,-0.75325 -0.27414,-0.75325 -0.13113,-0.66742 0.11668,-0.51875 0.40281,-0.34705 0.65061,-0.19838 0.79368,-0.11255 0.79364,-0.11255 0.65061,-0.19838 0.40281,-0.34706 0.1167,-0.51874 -0.13112,-0.66742 -0.27417,-0.75325 -0.27417,-0.75325 -0.13112,-0.66742 0.11669,-0.51875 0.40281,-0.34704 0.65062,-0.19838 0.79364,-0.11256 0.79367,-0.11254 0.65062,-0.19836 0.4028,-0.34707 0.11668,-0.51873 -0.13113,-0.66744 -0.27414,-0.75323 -0.27417,-0.75327 -0.13112,-0.66742 0.11669,-0.51874 0.40281,-0.34704 0.65061,-0.1984 0.79365,-0.11253 0.79367,-0.11257 0.65061,-0.19836 0.40281,-0.34706 0.11669,-0.51874 -0.13114,-0.66743 -0.27415,-0.75324 -0.27417,-0.75326 -0.1311,-0.66741 0.11668,-0.51875 1.59698,-0.24181" /></g><g
                     id="g420"><g
                       transform="translate(13.508,-174.16)"
                       id="g422"><g
                         id="g424"><g
                           transform="translate(-146.978,-42.856)"
                           id="g426"><g
                             style="font-variant:normal;font-weight:normal;font-size:9.96264px;font-family:'Fira Math';-inkscape-font-specification:FiraMath-Regular;writing-mode:lr-tb;fill:#000000;fill-opacity:1;fill-rule:nonzero;stroke:none"
                             id="text430"
                             transform="matrix(1,0,0,-1,146.978,42.856)"
                             aria-label="γ"><path
                               id="path821"
                               d="m 0.81693646,-5.3599002 -0.86674966,0.3287671 c 0.68742215,0.7671233 1.2154421,2.3113324 1.9427148,4.9315067 -0.3686177,0.86674967 -0.3586551,1.4645081 0.039851,2.2515566 L 2.6600248,2.0124532 C 2.5006226,1.1158157 2.5205479,0.52801991 2.8094644,-0.21917808 L 4.702366,-5.1706101 3.7758405,-5.3599002 2.3910336,-1.0560398 C 1.9726027,-3.3275217 1.2851805,-4.7422165 0.81693646,-5.3599002 Z" /></g><g
                             transform="translate(146.978,42.856)"
                             id="g432" /></g></g><g
                         transform="translate(-13.508,174.16)"
                         id="g434" /></g></g></g></g><g
                 id="g436"><g
                   id="g438"><g
                     id="g440"><path
                       id="path442"
                       style="fill:none;stroke:#cc0000;stroke-width:0.3985;stroke-linecap:butt;stroke-linejoin:miter;stroke-miterlimit:10;stroke-dasharray:none;stroke-opacity:1"
                       d="m 12.47397,-149.68994 0.43289,-0.25974 0.75327,0.27418 0.66742,0.13111 0.51873,-0.1167 0.34705,-0.4028 0.19839,-0.65062 0.11254,-0.79364 0.11256,-0.79367 0.19837,-0.65062 0.34706,-0.4028 0.51873,-0.11668 0.66744,0.13112 0.75323,0.27415 0.75327,0.27417 0.6674,0.13112 0.51876,-0.11669 0.34704,-0.4028 0.1984,-0.65062 0.11253,-0.79365 0.11255,-0.79368 0.19838,-0.6506 0.34706,-0.4028 0.51874,-0.1167 0.66742,0.13114 0.75325,0.27415 0.75325,0.27417 0.66742,0.13112 0.51875,-0.1167 0.34705,-0.40278 0.19838,-0.65064 0.11254,-0.79366 0.11256,-0.79365 0.19837,-0.65062 0.34706,-0.40279 0.51874,-0.11671 0.66742,0.13113 0.75325,0.27416 0.75325,0.27417 0.66742,0.13113 0.51875,-0.11672 0.34705,-0.40278 0.19838,-0.65063 0.11255,-0.79364 0.11255,-0.79366 0.19836,-0.65062 0.34706,-0.4028 0.51874,-0.1167 0.66744,0.13113 0.75323,0.27416 0.75327,0.27415 0.6674,0.13114 0.51875,-0.1167 0.34705,-0.4028 0.19839,-0.65061 0.11254,-0.79367 0.11256,-0.79364 0.19837,-0.65063 0.34705,-0.40279 0.51874,-0.11671 0.66744,0.13113 0.75323,0.27417 0.75327,0.27415 0.6674,0.13114 0.51876,-0.11672 0.34704,-0.40278 0.1984,-0.65062 0.11253,-0.79366 0.11255,-0.79365 0.19838,-0.65064 0.34706,-0.40278 1.52322,0.53865" /></g><g
                     id="g444"><g
                       transform="translate(31.586,-153.372)"
                       id="g446"><g
                         id="g448"><g
                           transform="translate(-165.056,-63.644)"
                           id="g450"><g
                             style="font-variant:normal;font-weight:normal;font-size:9.96264px;font-family:'Fira Math';-inkscape-font-specification:FiraMath-Regular;writing-mode:lr-tb;fill:#000000;fill-opacity:1;fill-rule:nonzero;stroke:none"
                             id="text454"
                             transform="matrix(1,0,0,-1,165.056,63.644)"
                             aria-label="γ"><path
                               id="path824"
                               d="m 0.81693646,-5.3599002 -0.86674966,0.3287671 c 0.68742215,0.7671233 1.2154421,2.3113324 1.9427148,4.9315067 -0.3686177,0.86674967 -0.3586551,1.4645081 0.039851,2.2515566 L 2.6600248,2.0124532 C 2.5006226,1.1158157 2.5205479,0.52801991 2.8094644,-0.21917808 L 4.702366,-5.1706101 3.7758405,-5.3599002 2.3910336,-1.0560398 C 1.9726027,-3.3275217 1.2851805,-4.7422165 0.81693646,-5.3599002 Z" /></g><g
                             transform="translate(165.056,63.644)"
                             id="g456" /></g></g><g
                         transform="translate(-31.586,153.372)"
                         id="g458" /></g></g></g></g></g></g><g
             id="g460"><g
               clip-path="url(#clipPath466)"
               id="g462"><g
                 transform="matrix(0.09396389,-0.40700421,0.55777827,0.12877267,-109.14111,-96.667832)"
                 id="g468"><g
                   id="g470"><g
                     transform="translate(-50,-50)"
                     id="g472"><g
                       id="g474"><g
                         clip-path="url(#clipPath480)"
                         id="g476"><path
                           id="path494"
                           style="fill:url(#linearGradient492);stroke:none"
                           d="M 0,0 H 100 V 100 H 0 Z" /></g></g></g></g></g></g></g><g
             id="g496"><g
               clip-path="url(#clipPath502)"
               id="g498"><g
                 transform="matrix(0.37995319,-0.15350733,0.17332742,0.42901081,-90.4317,-118.49643)"
                 id="g504"><g
                   id="g506"><g
                     transform="translate(-50,-50)"
                     id="g508"><g
                       id="g510"><g
                         clip-path="url(#clipPath516)"
                         id="g512"><path
                           id="path530"
                           style="fill:url(#linearGradient528);stroke:none"
                           d="M 0,0 H 100 V 100 H 0 Z" /></g></g></g></g></g></g></g><g
             id="g532"><g
               clip-path="url(#clipPath538)"
               id="g534"><g
                 transform="matrix(0.48175144,0.23496632,-0.25359266,0.51994103,43.6538,-196.45442)"
                 id="g540"><g
                   id="g542"><g
                     transform="translate(-50,-50)"
                     id="g544"><g
                       id="g546"><g
                         clip-path="url(#clipPath552)"
                         id="g548"><path
                           id="path566"
                           style="fill:url(#linearGradient564);stroke:none"
                           d="M 0,0 H 100 V 100 H 0 Z" /></g></g></g></g></g></g></g><g
             id="g568"><g
               clip-path="url(#clipPath574)"
               id="g570"><g
                 transform="matrix(0.20845,0.36104791,-0.38989537,0.225105,56.12949,-177.74506)"
                 id="g576"><g
                   id="g578"><g
                     transform="translate(-50,-50)"
                     id="g580"><g
                       id="g582"><g
                         clip-path="url(#clipPath588)"
                         id="g584"><path
                           id="path602"
                           style="fill:url(#linearGradient600);stroke:none"
                           d="M 0,0 H 100 V 100 H 0 Z" /></g></g></g></g></g></g></g><g
             id="g604"><g
               transform="rotate(35.000234,135.5129,-259.90883)"
               id="g606"><g
                 id="g608"><g
                   transform="translate(-8.899,-92.284)"
                   id="g610"><g
                     style="font-variant:normal;font-weight:normal;font-size:9.96264px;font-family:'Fira Sans';-inkscape-font-specification:FiraSans-Book;writing-mode:lr-tb;fill:#000000;fill-opacity:1;fill-rule:nonzero;stroke:none"
                     id="text614"
                     transform="matrix(1,0,0,-1,8.899,92.284)"
                     aria-label="EM-subshower"><path
                       id="path827"
                       d="M 4.7123286,-6.8642588 H 0.99626398 V 0 H 4.7920297 V -0.75716063 H 1.9427148 V -3.1083436 H 4.2540472 V -3.8655042 H 1.9427148 v -2.241594 h 2.6600248 z" /><path
                       id="path829"
                       d="M 11.845579,-6.8642588 H 10.560398 L 9.1855539,-1.8729763 7.7409711,-6.8642588 H 6.4657532 L 5.8978827,0 H 6.7945203 L 7.023661,-3.0286425 c 0.079701,-1.0062266 0.1295143,-2.0722291 0.1295143,-2.8792029 l 1.5641345,5.13075949 H 9.6039847 L 11.088418,-5.8978828 c 0.01,0.5678705 0.0797,1.7235367 0.169365,2.7995018 L 11.496886,0 h 0.916563 z" /><path
                       id="path831"
                       d="m 13.608966,-2.7297633 h 2.819427 v -0.7770859 h -2.819427 z" /><path
                       id="path833"
                       d="m 19.387298,-5.3698629 c -1.085928,0 -1.892902,0.6077211 -1.892902,1.4445828 0,0.7372354 0.448319,1.2254047 1.58406,1.5242839 1.016189,0.2689913 1.275218,0.4682441 1.275218,0.9863013 0,0.49813204 -0.438356,0.79701123 -1.125778,0.79701123 -0.567871,0 -1.05604,-0.18929015 -1.474471,-0.50809463 l -0.488169,0.55790783 c 0.458281,0.39850559 1.09589,0.68742215 1.982565,0.68742215 1.066002,0 2.072229,-0.49813199 2.072229,-1.59402238 0,-0.9165629 -0.637609,-1.354919 -1.743462,-1.6338729 -0.846824,-0.2191781 -1.125778,-0.4184309 -1.125778,-0.8468244 0,-0.4184309 0.368617,-0.6874222 0.966376,-0.6874222 0.488169,0 0.896637,0.1494396 1.364881,0.4483188 l 0.388543,-0.5778331 c -0.498132,-0.3785803 -1.046077,-0.5977584 -1.783312,-0.5977584 z" /><path
                       id="path835"
                       d="m 26.460772,-5.2503112 h -0.916563 v 3.7459526 c -0.318804,0.5280199 -0.747198,0.90660021 -1.315068,0.90660021 -0.567871,0 -0.806974,-0.26899127 -0.806974,-0.98630131 v -3.6662515 h -0.916563 v 3.7658779 c 0,1.02615187 0.547945,1.60398498 1.464508,1.60398498 0.747198,0 1.235367,-0.2988792 1.633873,-0.93648814 L 25.673724,0 h 0.787048 z" /><path
                       id="path837"
                       d="m 30.694894,-5.3698629 c -0.637609,0 -1.125779,0.2889166 -1.484434,0.7770859 v -2.8792029 l -0.916563,0.1095891 V 0 h 0.806974 l 0.08966,-0.57783311 c 0.358655,0.43835615 0.816937,0.69738479 1.39477,0.69738479 1.275218,0 2.062266,-1.10585302 2.062266,-2.74968858 0,-1.7534246 -0.767123,-2.739726 -1.952677,-2.739726 z m -0.328767,4.76214187 c -0.468245,0 -0.886675,-0.28891655 -1.155667,-0.70734747 v -2.5105852 c 0.268992,-0.4184309 0.647572,-0.8169365 1.225405,-0.8169365 0.737235,0 1.225405,0.5180573 1.225405,2.0124533 0,1.4346201 -0.52802,2.02241587 -1.295143,2.02241587 z" /><path
                       id="path839"
                       d="m 35.556663,-5.3698629 c -1.085928,0 -1.892902,0.6077211 -1.892902,1.4445828 0,0.7372354 0.448319,1.2254047 1.58406,1.5242839 1.016189,0.2689913 1.275218,0.4682441 1.275218,0.9863013 0,0.49813204 -0.438356,0.79701123 -1.125778,0.79701123 -0.567871,0 -1.05604,-0.18929015 -1.474471,-0.50809463 l -0.48817,0.55790783 c 0.458282,0.39850559 1.095891,0.68742215 1.982566,0.68742215 1.066002,0 2.072229,-0.49813199 2.072229,-1.59402238 0,-0.9165629 -0.637609,-1.354919 -1.743462,-1.6338729 -0.846824,-0.2191781 -1.125778,-0.4184309 -1.125778,-0.8468244 0,-0.4184309 0.368617,-0.6874222 0.966376,-0.6874222 0.488169,0 0.896637,0.1494396 1.364881,0.4483188 l 0.388543,-0.5778331 c -0.498132,-0.3785803 -1.046077,-0.5977584 -1.783312,-0.5977584 z" /><path
                       id="path841"
                       d="m 41.205478,-5.3698629 c -0.657535,0 -1.175592,0.3287672 -1.554172,0.8468244 v -2.9290161 l -0.916563,0.099626 V 0 h 0.916563 v -3.7359899 c 0.348692,-0.5479452 0.75716,-0.9165629 1.325031,-0.9165629 0.498132,0 0.836862,0.2291407 0.836862,1.0161893 V 0 h 0.916563 v -3.7658778 c 0,-0.9863014 -0.567871,-1.6039851 -1.524284,-1.6039851 z" /><path
                       id="path843"
                       d="m 46.505605,-5.3698629 c -1.494396,0 -2.351183,1.1257783 -2.351183,2.7496886 0,1.66376088 0.846825,2.73972598 2.34122,2.73972598 1.484434,0 2.341221,-1.12577828 2.341221,-2.74968858 0,-1.6637609 -0.836862,-2.739726 -2.331258,-2.739726 z m 0,0.7372354 c 0.86675,0 1.344957,0.6376089 1.344957,2.0024906 0,1.3748443 -0.478207,2.01245323 -1.35492,2.01245323 -0.876712,0 -1.354919,-0.63760893 -1.354919,-2.00249063 0,-1.3748443 0.48817,-2.0124532 1.364882,-2.0124532 z" /><path
                       id="path845"
                       d="M 56.318804,-5.2503112 H 55.442091 L 54.485678,-0.63760895 53.499376,-5.2503112 H 52.473225 L 51.43711,-0.63760895 50.490659,-5.2503112 H 49.574096 L 50.799501,0 h 1.215442 L 52.961394,-4.4234121 53.877957,0 h 1.24533 z" /><path
                       id="path847"
                       d="m 61.389788,-2.7795765 c 0,-1.603985 -0.747198,-2.5902864 -2.161893,-2.5902864 -1.354919,0 -2.181818,1.1656289 -2.181818,2.7995018 0,1.66376088 0.856787,2.68991278 2.321295,2.68991278 0.727273,0 1.315069,-0.249066 1.833126,-0.65753423 L 60.801992,-1.0859277 c -0.458281,0.31880443 -0.846824,0.45828139 -1.364881,0.45828139 -0.757161,0 -1.325031,-0.46824409 -1.414695,-1.68368609 h 3.347447 c 0.01,-0.1195517 0.01993,-0.2889166 0.01993,-0.4682441 z m -0.9066,-0.2092154 h -2.460772 c 0.06974,-1.1656289 0.52802,-1.6537983 1.225405,-1.6537983 0.826899,0 1.235367,0.5678705 1.235367,1.5940224 z" /><path
                       id="path849"
                       d="m 65.075964,-5.3698629 c -0.637609,0 -1.125779,0.3985056 -1.404732,1.1855542 l -0.08966,-1.0660025 H 62.794519 V 0 h 0.916563 v -2.9987546 c 0.219178,-1.0062266 0.597759,-1.4744707 1.255293,-1.4744707 0.18929,0 0.298879,0.019925 0.458281,0.059776 l 0.169365,-0.8966376 c -0.159402,-0.039851 -0.348692,-0.059776 -0.518057,-0.059776 z" /></g><g
                     transform="translate(8.899,92.284)"
                     id="g616" /></g></g><g
                 transform="translate(124.571,124.732)"
                 id="g618" /></g></g><g
             id="g620"><g
               transform="matrix(0.76604,-0.64279,0.64279,0.76604,26.748,-170.038)"
               id="g622"><g
                 id="g624"><g
                   transform="translate(-160.218,-46.978)"
                   id="g626"><g
                     style="font-variant:normal;font-weight:normal;font-size:9.96264px;font-family:'Fira Sans';-inkscape-font-specification:FiraSans-Book;writing-mode:lr-tb;fill:#000000;fill-opacity:1;fill-rule:nonzero;stroke:none"
                     id="text630"
                     transform="matrix(1,0,0,-1,160.218,46.978)"
                     aria-label="EM-subshower"><path
                       id="path852"
                       d="M 4.7123286,-6.8642588 H 0.99626398 V 0 H 4.7920297 V -0.75716063 H 1.9427148 V -3.1083436 H 4.2540472 V -3.8655042 H 1.9427148 v -2.241594 h 2.6600248 z" /><path
                       id="path854"
                       d="M 11.845579,-6.8642588 H 10.560398 L 9.1855539,-1.8729763 7.7409711,-6.8642588 H 6.4657532 L 5.8978827,0 H 6.7945203 L 7.023661,-3.0286425 c 0.079701,-1.0062266 0.1295143,-2.0722291 0.1295143,-2.8792029 l 1.5641345,5.13075949 H 9.6039847 L 11.088418,-5.8978828 c 0.01,0.5678705 0.0797,1.7235367 0.169365,2.7995018 L 11.496886,0 h 0.916563 z" /><path
                       id="path856"
                       d="m 13.608966,-2.7297633 h 2.819427 v -0.7770859 h -2.819427 z" /><path
                       id="path858"
                       d="m 19.387298,-5.3698629 c -1.085928,0 -1.892902,0.6077211 -1.892902,1.4445828 0,0.7372354 0.448319,1.2254047 1.58406,1.5242839 1.016189,0.2689913 1.275218,0.4682441 1.275218,0.9863013 0,0.49813204 -0.438356,0.79701123 -1.125778,0.79701123 -0.567871,0 -1.05604,-0.18929015 -1.474471,-0.50809463 l -0.488169,0.55790783 c 0.458281,0.39850559 1.09589,0.68742215 1.982565,0.68742215 1.066002,0 2.072229,-0.49813199 2.072229,-1.59402238 0,-0.9165629 -0.637609,-1.354919 -1.743462,-1.6338729 -0.846824,-0.2191781 -1.125778,-0.4184309 -1.125778,-0.8468244 0,-0.4184309 0.368617,-0.6874222 0.966376,-0.6874222 0.488169,0 0.896637,0.1494396 1.364881,0.4483188 l 0.388543,-0.5778331 c -0.498132,-0.3785803 -1.046077,-0.5977584 -1.783312,-0.5977584 z" /><path
                       id="path860"
                       d="m 26.460772,-5.2503112 h -0.916563 v 3.7459526 c -0.318804,0.5280199 -0.747198,0.90660021 -1.315068,0.90660021 -0.567871,0 -0.806974,-0.26899127 -0.806974,-0.98630131 v -3.6662515 h -0.916563 v 3.7658779 c 0,1.02615187 0.547945,1.60398498 1.464508,1.60398498 0.747198,0 1.235367,-0.2988792 1.633873,-0.93648814 L 25.673724,0 h 0.787048 z" /><path
                       id="path862"
                       d="m 30.694894,-5.3698629 c -0.637609,0 -1.125779,0.2889166 -1.484434,0.7770859 v -2.8792029 l -0.916563,0.1095891 V 0 h 0.806974 l 0.08966,-0.57783311 c 0.358655,0.43835615 0.816937,0.69738479 1.39477,0.69738479 1.275218,0 2.062266,-1.10585302 2.062266,-2.74968858 0,-1.7534246 -0.767123,-2.739726 -1.952677,-2.739726 z m -0.328767,4.76214187 c -0.468245,0 -0.886675,-0.28891655 -1.155667,-0.70734747 v -2.5105852 c 0.268992,-0.4184309 0.647572,-0.8169365 1.225405,-0.8169365 0.737235,0 1.225405,0.5180573 1.225405,2.0124533 0,1.4346201 -0.52802,2.02241587 -1.295143,2.02241587 z" /><path
                       id="path864"
                       d="m 35.556663,-5.3698629 c -1.085928,0 -1.892902,0.6077211 -1.892902,1.4445828 0,0.7372354 0.448319,1.2254047 1.58406,1.5242839 1.016189,0.2689913 1.275218,0.4682441 1.275218,0.9863013 0,0.49813204 -0.438356,0.79701123 -1.125778,0.79701123 -0.567871,0 -1.05604,-0.18929015 -1.474471,-0.50809463 l -0.48817,0.55790783 c 0.458282,0.39850559 1.095891,0.68742215 1.982566,0.68742215 1.066002,0 2.072229,-0.49813199 2.072229,-1.59402238 0,-0.9165629 -0.637609,-1.354919 -1.743462,-1.6338729 -0.846824,-0.2191781 -1.125778,-0.4184309 -1.125778,-0.8468244 0,-0.4184309 0.368617,-0.6874222 0.966376,-0.6874222 0.488169,0 0.896637,0.1494396 1.364881,0.4483188 l 0.388543,-0.5778331 c -0.498132,-0.3785803 -1.046077,-0.5977584 -1.783312,-0.5977584 z" /><path
                       id="path866"
                       d="m 41.205478,-5.3698629 c -0.657535,0 -1.175592,0.3287672 -1.554172,0.8468244 v -2.9290161 l -0.916563,0.099626 V 0 h 0.916563 v -3.7359899 c 0.348692,-0.5479452 0.75716,-0.9165629 1.325031,-0.9165629 0.498132,0 0.836862,0.2291407 0.836862,1.0161893 V 0 h 0.916563 v -3.7658778 c 0,-0.9863014 -0.567871,-1.6039851 -1.524284,-1.6039851 z" /><path
                       id="path868"
                       d="m 46.505605,-5.3698629 c -1.494396,0 -2.351183,1.1257783 -2.351183,2.7496886 0,1.66376088 0.846825,2.73972598 2.34122,2.73972598 1.484434,0 2.341221,-1.12577828 2.341221,-2.74968858 0,-1.6637609 -0.836862,-2.739726 -2.331258,-2.739726 z m 0,0.7372354 c 0.86675,0 1.344957,0.6376089 1.344957,2.0024906 0,1.3748443 -0.478207,2.01245323 -1.35492,2.01245323 -0.876712,0 -1.354919,-0.63760893 -1.354919,-2.00249063 0,-1.3748443 0.48817,-2.0124532 1.364882,-2.0124532 z" /><path
                       id="path870"
                       d="M 56.318804,-5.2503112 H 55.442091 L 54.485678,-0.63760895 53.499376,-5.2503112 H 52.473225 L 51.43711,-0.63760895 50.490659,-5.2503112 H 49.574096 L 50.799501,0 h 1.215442 L 52.961394,-4.4234121 53.877957,0 h 1.24533 z" /><path
                       id="path872"
                       d="m 61.389788,-2.7795765 c 0,-1.603985 -0.747198,-2.5902864 -2.161893,-2.5902864 -1.354919,0 -2.181818,1.1656289 -2.181818,2.7995018 0,1.66376088 0.856787,2.68991278 2.321295,2.68991278 0.727273,0 1.315069,-0.249066 1.833126,-0.65753423 L 60.801992,-1.0859277 c -0.458281,0.31880443 -0.846824,0.45828139 -1.364881,0.45828139 -0.757161,0 -1.325031,-0.46824409 -1.414695,-1.68368609 h 3.347447 c 0.01,-0.1195517 0.01993,-0.2889166 0.01993,-0.4682441 z m -0.9066,-0.2092154 h -2.460772 c 0.06974,-1.1656289 0.52802,-1.6537983 1.225405,-1.6537983 0.826899,0 1.235367,0.5678705 1.235367,1.5940224 z" /><path
                       id="path874"
                       d="m 65.075964,-5.3698629 c -0.637609,0 -1.125779,0.3985056 -1.404732,1.1855542 l -0.08966,-1.0660025 H 62.794519 V 0 h 0.916563 v -2.9987546 c 0.219178,-1.0062266 0.597759,-1.4744707 1.255293,-1.4744707 0.18929,0 0.298879,0.019925 0.458281,0.059776 l 0.169365,-0.8966376 c -0.159402,-0.039851 -0.348692,-0.059776 -0.518057,-0.059776 z" /></g><g
                     transform="translate(160.218,46.978)"
                     id="g632" /></g></g><g
                 transform="translate(-26.748,170.038)"
                 id="g634" /></g></g><g
             id="g636"><g
               transform="translate(-6.099,-98.681)"
               id="g638"><g
                 id="g640"><g
                   transform="translate(-127.371,-118.335)"
                   id="g642"><g
                     style="font-variant:normal;font-weight:normal;font-size:9.96264px;font-family:'Fira Math';-inkscape-font-specification:FiraMath-Regular;writing-mode:lr-tb;fill:#000000;fill-opacity:1;fill-rule:nonzero;stroke:none"
                     id="text646"
                     transform="matrix(1,0,0,-1,127.371,118.335)"
                     aria-label="K"><path
                       id="path877"
                       d="M 1.9427148,-6.8642588 H 0.99626398 V 0 H 1.9427148 Z m 3.7359899,0 H 4.6027396 L 1.992528,-3.6662514 4.702366,0 H 5.8679948 L 3.0784557,-3.7260273 Z" /></g><g
                     style="font-variant:normal;font-weight:normal;font-size:7.1731px;font-family:'Fira Math';-inkscape-font-specification:FiraMath-Regular;writing-mode:lr-tb;fill:#000000;fill-opacity:1;fill-rule:nonzero;stroke:none"
                     id="text650"
                     transform="matrix(1,0,0,-1,133.239,122.319)"
                     aria-label="±"><path
                       id="path880"
                       d="M 0.4447322,-0.1578082 H 3.1418178 V -0.7029638 H 0.4447322 Z m 0,-2.080199 h 1.0472726 v 1.0687919 H 2.0945452 V -2.2380072 H 3.1418178 V -2.7831628 H 2.0945452 v -1.075965 H 1.4920048 v 1.075965 H 0.4447322 Z" /></g><g
                     style="font-variant:normal;font-weight:normal;font-size:9.96264px;font-family:'Fira Math';-inkscape-font-specification:FiraMath-Regular;writing-mode:lr-tb;fill:#000000;fill-opacity:1;fill-rule:nonzero;stroke:none"
                     id="text654"
                     transform="matrix(1,0,0,-1,137.234,118.335)"
                     aria-label=",p"><path
                       id="path883"
                       d="m 1.1855541,-1.2652553 c -0.38854292,0 -0.68742211,0.30884188 -0.68742211,0.68742219 0,0.23910336 0.10958904,0.44831879 0.27895392,0.57783311 L 0.37858031,1.6537982 H 1.0361145 L 1.7036114,0.12951432 c 0.1295143,-0.28891656 0.1793275,-0.48816935 0.1793275,-0.70734743 0,-0.37858031 -0.2988792,-0.68742219 -0.6973848,-0.68742219 z" /><path
                       id="path885"
                       d="m 7.4022414,-5.3698629 c -0.5977584,0 -1.1656289,0.2889166 -1.5541718,0.8268991 L 5.7783311,-5.2503112 H 4.9912825 V 2.1220423 L 5.9078454,2.0124532 v -2.49065991 c 0.3387298,0.40846823 0.8069738,0.59775839 1.3748443,0.59775839 1.354919,0 2.0622664,-1.15566618 2.0622664,-2.74968858 0,-1.6537982 -0.5479452,-2.739726 -1.9427147,-2.739726 z m -0.3387298,4.74221659 c -0.4782067,0 -0.8866749,-0.22914071 -1.1556662,-0.63760899 v -2.5603984 c 0.2789539,-0.4184309 0.7073474,-0.8169365 1.2652553,-0.8169365 0.7870485,0 1.1855541,0.6475716 1.1855541,2.0124533 0,1.3748443 -0.4582814,2.00249059 -1.2951432,2.00249059 z" /></g><g
                     style="font-variant:normal;font-weight:normal;font-size:7.1731px;font-family:'Fira Math';-inkscape-font-specification:FiraMath-Regular;writing-mode:lr-tb;fill:#000000;fill-opacity:1;fill-rule:nonzero;stroke:none"
                     id="text658"
                     transform="matrix(1,0,0,-1,147.203,122.319)"
                     aria-label="±"><path
                       id="path888"
                       d="M 0.4447322,-0.1578082 H 3.1418178 V -0.7029638 H 0.4447322 Z m 0,-2.080199 h 1.0472726 v 1.0687919 H 2.0945452 V -2.2380072 H 3.1418178 V -2.7831628 H 2.0945452 v -1.075965 H 1.4920048 v 1.075965 H 0.4447322 Z" /></g><g
                     style="font-variant:normal;font-weight:normal;font-size:9.96264px;font-family:'Fira Math';-inkscape-font-specification:FiraMath-Regular;writing-mode:lr-tb;fill:#000000;fill-opacity:1;fill-rule:nonzero;stroke:none"
                     id="text662"
                     transform="matrix(1,0,0,-1,151.198,118.335)"
                     aria-label=",n,..."><path
                       id="path891"
                       d="m 1.1855541,-1.2652553 c -0.38854292,0 -0.68742211,0.30884188 -0.68742211,0.68742219 0,0.23910336 0.10958904,0.44831879 0.27895392,0.57783311 L 0.37858031,1.6537982 H 1.0361145 L 1.7036114,0.12951432 c 0.1295143,-0.28891656 0.1793275,-0.48816935 0.1793275,-0.70734743 0,-0.37858031 -0.2988792,-0.68742219 -0.6973848,-0.68742219 z" /><path
                       id="path893"
                       d="m 7.4620172,-5.3698629 c -0.6874221,0 -1.24533,0.3586551 -1.603985,0.8966376 L 5.7783311,-5.2503112 H 4.9912825 V 0 h 0.9165629 v -3.7260273 c 0.3486924,-0.5579078 0.747198,-0.9265255 1.3349937,-0.9265255 0.5080947,0 0.8268991,0.2291407 0.8268991,1.0161893 V 0 h 0.9165629 v -3.7658778 c 0,-0.996264 -0.5579078,-1.6039851 -1.5242839,-1.6039851 z" /><path
                       id="path895"
                       d="m 11.068493,-1.2652553 c -0.388542,0 -0.687422,0.30884188 -0.687422,0.68742219 0,0.23910336 0.109589,0.44831879 0.278954,0.57783311 L 10.26152,1.6537982 h 0.657534 l 0.667497,-1.52428388 c 0.129514,-0.28891656 0.179327,-0.48816935 0.179327,-0.70734743 0,-0.37858031 -0.298879,-0.68742219 -0.697385,-0.68742219 z" /><path
                       id="path897"
                       d="m 15.123288,-1.2652553 c -0.388543,0 -0.687422,0.30884188 -0.687422,0.68742219 0,0.38854295 0.298879,0.69738479 0.687422,0.69738479 0.398505,0 0.697385,-0.30884184 0.697385,-0.69738479 0,-0.37858031 -0.29888,-0.68742219 -0.697385,-0.68742219 z" /><path
                       id="path899"
                       d="m 17.514322,-1.2652553 c -0.388543,0 -0.687422,0.30884188 -0.687422,0.68742219 0,0.38854295 0.298879,0.69738479 0.687422,0.69738479 0.398506,0 0.697385,-0.30884184 0.697385,-0.69738479 0,-0.37858031 -0.298879,-0.68742219 -0.697385,-0.68742219 z" /><path
                       id="path901"
                       d="m 19.905355,-1.2652553 c -0.388543,0 -0.687422,0.30884188 -0.687422,0.68742219 0,0.38854295 0.298879,0.69738479 0.687422,0.69738479 0.398506,0 0.697385,-0.30884184 0.697385,-0.69738479 0,-0.37858031 -0.298879,-0.68742219 -0.697385,-0.68742219 z" /></g><g
                     transform="translate(127.371,118.335)"
                     id="g664" /></g></g><g
                 transform="translate(6.099,98.681)"
                 id="g666" /></g></g><g
             id="g668"><g
               transform="translate(-6.099,-98.681)"
               id="g670"><g
                 id="g672"><g
                   transform="translate(-127.371,-118.335)"
                   id="g674"><g
                     style="font-variant:normal;font-weight:normal;font-size:9.96264px;font-family:'Fira Math';-inkscape-font-specification:FiraMath-Regular;writing-mode:lr-tb;fill:#000000;fill-opacity:1;fill-rule:nonzero;stroke:none"
                     id="text678"
                     transform="matrix(1,0,0,-1,127.371,118.335)"
                     aria-label="K"><path
                       id="path904"
                       d="M 1.9427148,-6.8642588 H 0.99626398 V 0 H 1.9427148 Z m 3.7359899,0 H 4.6027396 L 1.992528,-3.6662514 4.702366,0 H 5.8679948 L 3.0784557,-3.7260273 Z" /></g><g
                     style="font-variant:normal;font-weight:normal;font-size:7.1731px;font-family:'Fira Math';-inkscape-font-specification:FiraMath-Regular;writing-mode:lr-tb;fill:#000000;fill-opacity:1;fill-rule:nonzero;stroke:none"
                     id="text682"
                     transform="matrix(1,0,0,-1,133.239,122.319)"
                     aria-label="±"><path
                       id="path907"
                       d="M 0.4447322,-0.1578082 H 3.1418178 V -0.7029638 H 0.4447322 Z m 0,-2.080199 h 1.0472726 v 1.0687919 H 2.0945452 V -2.2380072 H 3.1418178 V -2.7831628 H 2.0945452 v -1.075965 H 1.4920048 v 1.075965 H 0.4447322 Z" /></g><g
                     style="font-variant:normal;font-weight:normal;font-size:9.96264px;font-family:'Fira Math';-inkscape-font-specification:FiraMath-Regular;writing-mode:lr-tb;fill:#000000;fill-opacity:1;fill-rule:nonzero;stroke:none"
                     id="text686"
                     transform="matrix(1,0,0,-1,137.234,118.335)"
                     aria-label=",p"><path
                       id="path910"
                       d="m 1.1855541,-1.2652553 c -0.38854292,0 -0.68742211,0.30884188 -0.68742211,0.68742219 0,0.23910336 0.10958904,0.44831879 0.27895392,0.57783311 L 0.37858031,1.6537982 H 1.0361145 L 1.7036114,0.12951432 c 0.1295143,-0.28891656 0.1793275,-0.48816935 0.1793275,-0.70734743 0,-0.37858031 -0.2988792,-0.68742219 -0.6973848,-0.68742219 z" /><path
                       id="path912"
                       d="m 7.4022414,-5.3698629 c -0.5977584,0 -1.1656289,0.2889166 -1.5541718,0.8268991 L 5.7783311,-5.2503112 H 4.9912825 V 2.1220423 L 5.9078454,2.0124532 v -2.49065991 c 0.3387298,0.40846823 0.8069738,0.59775839 1.3748443,0.59775839 1.354919,0 2.0622664,-1.15566618 2.0622664,-2.74968858 0,-1.6537982 -0.5479452,-2.739726 -1.9427147,-2.739726 z m -0.3387298,4.74221659 c -0.4782067,0 -0.8866749,-0.22914071 -1.1556662,-0.63760899 v -2.5603984 c 0.2789539,-0.4184309 0.7073474,-0.8169365 1.2652553,-0.8169365 0.7870485,0 1.1855541,0.6475716 1.1855541,2.0124533 0,1.3748443 -0.4582814,2.00249059 -1.2951432,2.00249059 z" /></g><g
                     style="font-variant:normal;font-weight:normal;font-size:7.1731px;font-family:'Fira Math';-inkscape-font-specification:FiraMath-Regular;writing-mode:lr-tb;fill:#000000;fill-opacity:1;fill-rule:nonzero;stroke:none"
                     id="text690"
                     transform="matrix(1,0,0,-1,147.203,122.319)"
                     aria-label="±"><path
                       id="path915"
                       d="M 0.4447322,-0.1578082 H 3.1418178 V -0.7029638 H 0.4447322 Z m 0,-2.080199 h 1.0472726 v 1.0687919 H 2.0945452 V -2.2380072 H 3.1418178 V -2.7831628 H 2.0945452 v -1.075965 H 1.4920048 v 1.075965 H 0.4447322 Z" /></g><g
                     style="font-variant:normal;font-weight:normal;font-size:9.96264px;font-family:'Fira Math';-inkscape-font-specification:FiraMath-Regular;writing-mode:lr-tb;fill:#000000;fill-opacity:1;fill-rule:nonzero;stroke:none"
                     id="text694"
                     transform="matrix(1,0,0,-1,151.198,118.335)"
                     aria-label=",n,..."><path
                       id="path918"
                       d="m 1.1855541,-1.2652553 c -0.38854292,0 -0.68742211,0.30884188 -0.68742211,0.68742219 0,0.23910336 0.10958904,0.44831879 0.27895392,0.57783311 L 0.37858031,1.6537982 H 1.0361145 L 1.7036114,0.12951432 c 0.1295143,-0.28891656 0.1793275,-0.48816935 0.1793275,-0.70734743 0,-0.37858031 -0.2988792,-0.68742219 -0.6973848,-0.68742219 z" /><path
                       id="path920"
                       d="m 7.4620172,-5.3698629 c -0.6874221,0 -1.24533,0.3586551 -1.603985,0.8966376 L 5.7783311,-5.2503112 H 4.9912825 V 0 h 0.9165629 v -3.7260273 c 0.3486924,-0.5579078 0.747198,-0.9265255 1.3349937,-0.9265255 0.5080947,0 0.8268991,0.2291407 0.8268991,1.0161893 V 0 h 0.9165629 v -3.7658778 c 0,-0.996264 -0.5579078,-1.6039851 -1.5242839,-1.6039851 z" /><path
                       id="path922"
                       d="m 11.068493,-1.2652553 c -0.388542,0 -0.687422,0.30884188 -0.687422,0.68742219 0,0.23910336 0.109589,0.44831879 0.278954,0.57783311 L 10.26152,1.6537982 h 0.657534 l 0.667497,-1.52428388 c 0.129514,-0.28891656 0.179327,-0.48816935 0.179327,-0.70734743 0,-0.37858031 -0.298879,-0.68742219 -0.697385,-0.68742219 z" /><path
                       id="path924"
                       d="m 15.123288,-1.2652553 c -0.388543,0 -0.687422,0.30884188 -0.687422,0.68742219 0,0.38854295 0.298879,0.69738479 0.687422,0.69738479 0.398505,0 0.697385,-0.30884184 0.697385,-0.69738479 0,-0.37858031 -0.29888,-0.68742219 -0.697385,-0.68742219 z" /><path
                       id="path926"
                       d="m 17.514322,-1.2652553 c -0.388543,0 -0.687422,0.30884188 -0.687422,0.68742219 0,0.38854295 0.298879,0.69738479 0.687422,0.69738479 0.398506,0 0.697385,-0.30884184 0.697385,-0.69738479 0,-0.37858031 -0.298879,-0.68742219 -0.697385,-0.68742219 z" /><path
                       id="path928"
                       d="m 19.905355,-1.2652553 c -0.388543,0 -0.687422,0.30884188 -0.687422,0.68742219 0,0.38854295 0.298879,0.69738479 0.687422,0.69738479 0.398506,0 0.697385,-0.30884184 0.697385,-0.69738479 0,-0.37858031 -0.298879,-0.68742219 -0.697385,-0.68742219 z" /></g><g
                     transform="translate(127.371,118.335)"
                     id="g696" /></g></g><g
                 transform="translate(6.099,98.681)"
                 id="g698" /></g></g></g></g></g></g></svg>
