<?xml version="1.0" encoding="UTF-8" standalone="no"?>
<svg
   xmlns:dc="http://purl.org/dc/elements/1.1/"
   xmlns:cc="http://creativecommons.org/ns#"
   xmlns:rdf="http://www.w3.org/1999/02/22-rdf-syntax-ns#"
   xmlns:svg="http://www.w3.org/2000/svg"
   xmlns="http://www.w3.org/2000/svg"
   viewBox="0 0 283.276 285.69601"
   height="285.69601"
   width="283.276"
   xml:space="preserve"
   id="svg2"
   version="1.1"><metadata
     id="metadata8"><rdf:RDF><cc:Work
         rdf:about=""><dc:format>image/svg+xml</dc:format><dc:type
           rdf:resource="http://purl.org/dc/dcmitype/StillImage" /></cc:Work></rdf:RDF></metadata><defs
     id="defs6" /><g
     transform="matrix(1.3333333,0,0,-1.3333333,0,285.696)"
     id="g10"><g
       transform="translate(106.228,199.784)"
       id="g12"><g
         id="g14"><g
           id="g16"><g
             id="g18"><g
               id="g20"><g
                 transform="translate(-20.996,3.457)"
                 id="g22"><g
                   id="g24"><g
                     transform="translate(-85.232,-203.241)"
                     id="g26"><g
                       style="font-variant:normal;font-weight:normal;font-size:9.96264px;font-family:'Fira Sans';-inkscape-font-specification:FiraSans-Book;writing-mode:lr-tb;fill:#000000;fill-opacity:1;fill-rule:nonzero;stroke:none"
                       id="text30"
                       transform="matrix(1,0,0,-1,85.232,203.241)"
                       aria-label="Primary"><path
                         id="path436"
                         d="M 2.7995018,-6.8642588 H 0.99626398 V 0 H 1.9427148 v -2.5205479 h 0.8667496 c 1.5143213,0 2.6600249,-0.6475716 2.6600249,-2.2216686 0,-1.4445828 -1.0161893,-2.1220423 -2.6699875,-2.1220423 z m -0.029888,3.5965129 H 1.9427148 v -2.8592776 h 0.8468243 c 1.0161893,0 1.6737235,0.3686177 1.6737235,1.3947696 0,1.1656288 -0.6774595,1.464508 -1.6936487,1.464508 z" /><path
                         id="path438"
                         d="m 8.7571605,-5.3698629 c -0.637609,0 -1.1257783,0.3985056 -1.4047323,1.1855542 L 7.2627645,-5.2503112 H 6.4757159 V 0 h 0.9165629 v -2.9987546 c 0.2191781,-1.0062266 0.5977584,-1.4744707 1.2552926,-1.4744707 0.1892902,0 0.2988792,0.019925 0.4582815,0.059776 L 9.2752177,-5.310087 c -0.1594022,-0.039851 -0.3486924,-0.059776 -0.5180572,-0.059776 z" /><path
                         id="path440"
                         d="m 10.709838,-7.7708591 c -0.37858,0 -0.637609,0.2689913 -0.637609,0.6276464 0,0.3486924 0.259029,0.6176836 0.637609,0.6176836 0.388543,0 0.647572,-0.2689912 0.647572,-0.6176836 0,-0.3586551 -0.259029,-0.6276464 -0.647572,-0.6276464 z m 0.468244,2.5205479 H 10.261519 V 0 h 0.916563 z" /><path
                         id="path442"
                         d="m 18.261519,-5.3698629 c -0.707348,0 -1.185554,0.3785804 -1.564135,0.9464508 -0.199252,-0.5977584 -0.677459,-0.9464508 -1.325031,-0.9464508 -0.687422,0 -1.165629,0.3586551 -1.514321,0.886675 l -0.0797,-0.7671233 H 12.991282 V 0 h 0.916563 v -3.7260273 c 0.348693,-0.5579078 0.667497,-0.9265255 1.235367,-0.9265255 0.398506,0 0.737236,0.2291407 0.737236,1.0161893 V 0 h 0.916563 v -3.7260273 c 0.358655,-0.5579078 0.667497,-0.9265255 1.235367,-0.9265255 0.398506,0 0.737235,0.2291407 0.737235,1.0161893 V 0 h 0.916563 v -3.7658778 c 0,-0.9863014 -0.56787,-1.6039851 -1.424657,-1.6039851 z" /><path
                         id="path444"
                         d="m 24.976338,-1.2254047 v -2.4009962 c 0,-1.0958904 -0.577833,-1.743462 -1.843089,-1.743462 -0.587795,0 -1.165628,0.1195517 -1.8132,0.3586551 l 0.229141,0.6674968 c 0.537982,-0.1793275 1.026152,-0.2789539 1.414695,-0.2789539 0.727272,0 1.09589,0.2789539 1.09589,1.0361146 v 0.3885429 h -0.806974 c -1.464508,0 -2.311332,0.607721 -2.311332,1.7334993 0,0.93648819 0.627646,1.58405978 1.673723,1.58405978 0.637609,0 1.195517,-0.23910336 1.564135,-0.78704855 0.159402,0.51805727 0.498132,0.72727271 1.026151,0.78704855 l 0.209216,-0.63760895 c -0.268991,-0.0996264 -0.438356,-0.249066 -0.438356,-0.70734743 z m -2.15193,0.65753423 c -0.597759,0 -0.906601,-0.32876711 -0.906601,-0.94645083 0,-0.71731 0.48817,-1.0759651 1.454546,-1.0759651 h 0.687422 v 1.2054795 c -0.298879,0.54794516 -0.697385,0.81693643 -1.235367,0.81693643 z" /><path
                         id="path446"
                         d="m 29.090908,-5.3698629 c -0.637609,0 -1.125778,0.3985056 -1.404732,1.1855542 l -0.08966,-1.0660025 H 26.809463 V 0 h 0.916563 v -2.9987546 c 0.219178,-1.0062266 0.597759,-1.4744707 1.255293,-1.4744707 0.18929,0 0.298879,0.019925 0.458281,0.059776 l 0.169365,-0.8966376 c -0.159402,-0.039851 -0.348692,-0.059776 -0.518057,-0.059776 z" /><path
                         id="path448"
                         d="M 34.480698,-5.2503112 H 33.534247 L 32.159403,-0.66749687 30.75467,-5.2503112 H 29.778332 L 31.541719,0 h 0.308842 C 31.551681,0.81693646 31.252802,1.2254047 30.1868,1.4047322 l 0.09963,0.7173101 C 31.740972,1.96264 32.358655,1.1457036 32.727273,0.02988792 Z" /></g><g
                       style="font-variant:normal;font-weight:normal;font-size:9.96264px;font-family:'Fira Math';-inkscape-font-specification:FiraMath-Regular;writing-mode:lr-tb;fill:#000000;fill-opacity:1;fill-rule:nonzero;stroke:none"
                       id="text34"
                       transform="matrix(1,0,0,-1,122.423,203.241)"
                       aria-label="γ"><path
                         id="path451"
                         d="m 0.81693646,-5.3599002 -0.86674966,0.3287671 c 0.68742215,0.7671233 1.2154421,2.3113324 1.9427148,4.9315067 -0.3686177,0.86674967 -0.3586551,1.4645081 0.039851,2.2515566 L 2.6600248,2.0124532 C 2.5006226,1.1158157 2.5205479,0.52801991 2.8094644,-0.21917808 L 4.702366,-5.1706101 3.7758405,-5.3599002 2.3910336,-1.0560398 C 1.9726027,-3.3275217 1.2851805,-4.7422165 0.81693646,-5.3599002 Z" /></g><g
                       transform="translate(85.232,203.241)"
                       id="g36" /></g></g><g
                   transform="translate(20.996,-3.457)"
                   id="g38" /></g></g><g
               id="g40" /><g
               id="g42" /><g
               id="g44" /><g
               id="g46" /><g
               id="g48" /><g
               id="g50" /><g
               id="g52" /><g
               id="g54" /><g
               id="g56" /><g
               id="g58" /><g
               id="g60" /><g
               id="g62" /><g
               id="g64" /><g
               id="g66" /><g
               id="g68" /><g
               id="g70"><g
                 id="g72"><g
                   id="g74"><g
                     id="g76"><path
                       id="path78"
                       style="fill:none;stroke:#cc0000;stroke-width:0.3985;stroke-linecap:butt;stroke-linejoin:miter;stroke-miterlimit:10;stroke-dasharray:none;stroke-opacity:1"
                       d="m -1.05615,-2.215 -0.06166,-0.49324 0.55618,-0.57048 0.39064,-0.54978 0.10389,-0.51397 -0.2272,-0.47253 -0.51397,-0.43672 -0.67949,-0.41602 -0.67951,-0.41605 -0.51396,-0.43671 -0.2272,-0.47254 0.10388,-0.51395 0.39065,-0.54979 0.55617,-0.57048 0.55619,-0.57048 0.39065,-0.54977 0.10387,-0.51396 -0.22721,-0.47255 -0.51396,-0.43673 -0.6795,-0.41603 -0.67949,-0.41601 -0.51398,-0.43672 -0.2272,-0.47254 0.1039,-0.51396 0.39064,-0.54979 0.55618,-0.57048 0.55617,-0.57046 0.39065,-0.54981 0.10388,-0.51395 -0.2272,-0.47255 -0.51396,-0.4367 -0.67952,-0.41603 -0.67949,-0.41602 -0.51396,-0.43672 -0.22722,-0.47255 0.10389,-0.51396 0.39065,-0.54977 0.55618,-0.57049 0.55618,-0.57049 0.39064,-0.54978 0.1039,-0.51396 -0.22722,-0.47253 -0.51396,-0.43672 -0.67949,-0.41602 -0.6795,-0.41605 -0.51397,-0.4367 -0.22723,-0.47255 0.1039,-0.51395 0.39064,-0.54979 0.55618,-0.57048 0.55618,-0.57048 0.39064,-0.54977 0.1039,-0.51396 -0.22722,-0.47255 -0.51396,-0.43673 -0.67949,-0.41601 -0.6795,-0.41603 -0.51396,-0.43672 -0.22721,-0.47254 0.10388,-0.51396 0.39066,-0.54979 0.55617,-0.57048 0.55616,-0.57047 0.39065,-0.5498 0.10389,-0.51395 -0.2272,-0.47255 -0.51396,-0.4367 -0.67951,-0.41603 -0.6795,-0.41602 -0.51396,-0.43672 -0.22721,-0.47255 0.10388,-0.51396 0.39066,-0.54978 0.55618,-0.57048 0.55617,-0.57049 0.39066,-0.54977 0.10388,-0.51397 -0.22722,-0.47253 -0.51396,-0.43672 -0.6795,-0.41603 -0.6795,-0.41604 -0.51397,-0.4367 -0.22721,-0.47255 1.11055,-1.15228" /></g></g></g><g
                 id="g80"><g
                   id="g82"><path
                     id="path84"
                     style="fill:none;stroke:#57caff;stroke-width:0.3985;stroke-linecap:butt;stroke-linejoin:miter;stroke-miterlimit:10;stroke-dasharray:none;stroke-opacity:1"
                     d="M -6.23746,-43.65945 -24.94795,-81.08243" /><g
                     id="g86"><g
                       transform="translate(-28.537,-58.731)"
                       id="g88"><g
                         id="g90"><g
                           transform="translate(-77.691,-141.053)"
                           id="g92"><g
                             style="font-variant:normal;font-weight:normal;font-size:9.96264px;font-family:'Fira Math';-inkscape-font-specification:FiraMath-Regular;writing-mode:lr-tb;fill:#000000;fill-opacity:1;fill-rule:nonzero;stroke:none"
                             id="text96"
                             transform="matrix(1,0,0,-1,77.691,141.053)"
                             aria-label="e"><path
                               id="path454"
                               d="m 4.9115814,-2.7795765 c 0,-1.603985 -0.747198,-2.5902864 -2.1618928,-2.5902864 -1.354919,0 -2.18181813,1.1656289 -2.18181813,2.7995018 0,1.66376088 0.85678703,2.68991278 2.32129503,2.68991278 0.7272728,0 1.3150685,-0.249066 1.8331258,-0.65753423 L 4.3237857,-1.0859277 c -0.4582815,0.31880443 -0.8468244,0.45828139 -1.3648817,0.45828139 -0.7571606,0 -1.3250311,-0.46824409 -1.4146948,-1.68368609 h 3.3474469 c 0.00996,-0.1195517 0.019925,-0.2889166 0.019925,-0.4682441 z M 4.0049812,-2.9887919 h -2.460772 c 0.069738,-1.1656289 0.5280199,-1.6537983 1.2254047,-1.6537983 0.8268991,0 1.2353673,0.5678705 1.2353673,1.5940224 z" /></g><g
                             style="font-variant:normal;font-weight:normal;font-size:7.1731px;font-family:'Fira Math';-inkscape-font-specification:FiraMath-Regular;writing-mode:lr-tb;fill:#000000;fill-opacity:1;fill-rule:nonzero;stroke:none"
                             id="text100"
                             transform="matrix(1,0,0,-1,83.121,145.037)"
                             aria-label="+"><path
                               id="path457"
                               d="M 2.0945452,-3.3570108 H 1.4920048 v 1.075965 H 0.4447322 v 0.5451556 h 1.0472726 v 1.075965 h 0.6025404 v -1.075965 H 3.1418178 V -2.2810458 H 2.0945452 Z" /></g><g
                             transform="translate(77.691,141.053)"
                             id="g102" /></g></g><g
                         transform="translate(28.537,58.731)"
                         id="g104" /></g></g></g></g><g
                 id="g106"><g
                   id="g108"><path
                     id="path110"
                     style="fill:none;stroke:#57caff;stroke-width:0.3985;stroke-linecap:butt;stroke-linejoin:miter;stroke-miterlimit:10;stroke-dasharray:none;stroke-opacity:1"
                     d="M -6.23746,-43.65945 12.47397,-93.55644" /><g
                     id="g112"><g
                       transform="translate(6.638,-64.968)"
                       id="g114"><g
                         id="g116"><g
                           transform="translate(-112.866,-134.816)"
                           id="g118"><g
                             style="font-variant:normal;font-weight:normal;font-size:9.96264px;font-family:'Fira Math';-inkscape-font-specification:FiraMath-Regular;writing-mode:lr-tb;fill:#000000;fill-opacity:1;fill-rule:nonzero;stroke:none"
                             id="text122"
                             transform="matrix(1,0,0,-1,112.866,134.816)"
                             aria-label="e"><path
                               id="path460"
                               d="m 4.9115814,-2.7795765 c 0,-1.603985 -0.747198,-2.5902864 -2.1618928,-2.5902864 -1.354919,0 -2.18181813,1.1656289 -2.18181813,2.7995018 0,1.66376088 0.85678703,2.68991278 2.32129503,2.68991278 0.7272728,0 1.3150685,-0.249066 1.8331258,-0.65753423 L 4.3237857,-1.0859277 c -0.4582815,0.31880443 -0.8468244,0.45828139 -1.3648817,0.45828139 -0.7571606,0 -1.3250311,-0.46824409 -1.4146948,-1.68368609 h 3.3474469 c 0.00996,-0.1195517 0.019925,-0.2889166 0.019925,-0.4682441 z M 4.0049812,-2.9887919 h -2.460772 c 0.069738,-1.1656289 0.5280199,-1.6537983 1.2254047,-1.6537983 0.8268991,0 1.2353673,0.5678705 1.2353673,1.5940224 z" /></g><g
                             style="font-variant:normal;font-weight:normal;font-size:7.1731px;font-family:'Fira Math';-inkscape-font-specification:FiraMath-Regular;writing-mode:lr-tb;fill:#000000;fill-opacity:1;fill-rule:nonzero;stroke:none"
                             id="text126"
                             transform="matrix(1,0,0,-1,118.296,138.801)"
                             aria-label="−"><path
                               id="path463"
                               d="M 0.4447322,-1.7358902 H 3.1418178 V -2.2810458 H 0.4447322 Z" /></g><g
                             transform="translate(112.866,134.816)"
                             id="g128" /></g></g><g
                         transform="translate(-6.638,64.968)"
                         id="g130" /></g></g></g></g><g
                 id="g132"><g
                   id="g134"><path
                     id="path136"
                     style="fill:none;stroke:#57caff;stroke-width:0.3985;stroke-linecap:butt;stroke-linejoin:miter;stroke-miterlimit:10;stroke-dasharray:none;stroke-opacity:1"
                     d="m -24.94795,-81.08243 -37.42302,-43.65954" /><g
                     id="g138"><g
                       transform="translate(-56.603,-99.272)"
                       id="g140"><g
                         id="g142"><g
                           transform="translate(-49.625,-100.512)"
                           id="g144"><g
                             style="font-variant:normal;font-weight:normal;font-size:9.96264px;font-family:'Fira Math';-inkscape-font-specification:FiraMath-Regular;writing-mode:lr-tb;fill:#000000;fill-opacity:1;fill-rule:nonzero;stroke:none"
                             id="text148"
                             transform="matrix(1,0,0,-1,49.625,100.512)"
                             aria-label="e"><path
                               id="path466"
                               d="m 4.9115814,-2.7795765 c 0,-1.603985 -0.747198,-2.5902864 -2.1618928,-2.5902864 -1.354919,0 -2.18181813,1.1656289 -2.18181813,2.7995018 0,1.66376088 0.85678703,2.68991278 2.32129503,2.68991278 0.7272728,0 1.3150685,-0.249066 1.8331258,-0.65753423 L 4.3237857,-1.0859277 c -0.4582815,0.31880443 -0.8468244,0.45828139 -1.3648817,0.45828139 -0.7571606,0 -1.3250311,-0.46824409 -1.4146948,-1.68368609 h 3.3474469 c 0.00996,-0.1195517 0.019925,-0.2889166 0.019925,-0.4682441 z M 4.0049812,-2.9887919 h -2.460772 c 0.069738,-1.1656289 0.5280199,-1.6537983 1.2254047,-1.6537983 0.8268991,0 1.2353673,0.5678705 1.2353673,1.5940224 z" /></g><g
                             style="font-variant:normal;font-weight:normal;font-size:7.1731px;font-family:'Fira Math';-inkscape-font-specification:FiraMath-Regular;writing-mode:lr-tb;fill:#000000;fill-opacity:1;fill-rule:nonzero;stroke:none"
                             id="text152"
                             transform="matrix(1,0,0,-1,55.055,104.497)"
                             aria-label="+"><path
                               id="path469"
                               d="M 2.0945452,-3.3570108 H 1.4920048 v 1.075965 H 0.4447322 v 0.5451556 h 1.0472726 v 1.075965 h 0.6025404 v -1.075965 H 3.1418178 V -2.2810458 H 2.0945452 Z" /></g><g
                             transform="translate(49.625,100.512)"
                             id="g154" /></g></g><g
                         transform="translate(56.603,99.272)"
                         id="g156" /></g></g></g></g><g
                 id="g158"><g
                   id="g160"><g
                     id="g162"><path
                       id="path164"
                       style="fill:none;stroke:#cc0000;stroke-width:0.3985;stroke-linecap:butt;stroke-linejoin:miter;stroke-miterlimit:10;stroke-dasharray:none;stroke-opacity:1"
                       d="m -24.94795,-81.08243 v -0.51945 l 0.62266,-0.51946 0.45583,-0.51946 0.16686,-0.51945 -0.16686,-0.51944 -0.45583,-0.51945 -0.62266,-0.51946 -0.62268,-0.51945 -0.45583,-0.51944 -0.16684,-0.51946 0.16684,-0.51945 0.45583,-0.51946 0.62268,-0.51945 0.62266,-0.51944 0.45583,-0.51945 0.16686,-0.51946 -0.16686,-0.51946 -0.45583,-0.51944 -0.62266,-0.51945 -0.62268,-0.51946 -0.45583,-0.51945 -0.16684,-0.51946 0.16684,-0.51944 0.45583,-0.51945 0.62268,-0.51946 0.62266,-0.51945 0.45583,-0.51946 0.16686,-0.51944 -0.16686,-0.51945 -0.45583,-0.51946 -0.62266,-0.51945 -0.62268,-0.51944 -0.45583,-0.51945 -0.16684,-0.51946 0.16684,-0.51945 0.45583,-0.51946 0.62268,-0.51944 0.62266,-0.51946 0.45583,-0.51945 0.16686,-0.51945 -0.16686,-0.51944 -0.45583,-0.51946 -0.62266,-0.51945 -0.62268,-0.51946 -0.45583,-0.51945 -0.16684,-0.51944 0.16684,-0.51946 0.45583,-0.51945 0.62268,-0.51946 0.62266,-0.51944 0.45583,-0.51945 0.16686,-0.51946 -0.16686,-0.51945 -0.45583,-0.51946 -0.62266,-0.51944 -0.62268,-0.51945 -0.45583,-0.51946 -0.16684,-0.51945 0.16684,-0.51944 0.45583,-0.51946 0.62268,-0.51945 0.62266,-0.51946 0.45583,-0.51945 0.16686,-0.51944 -0.16686,-0.51946 -0.45583,-0.51945 -0.62266,-0.51946 -0.62268,-0.51944 -0.45583,-0.51945 -0.16684,-0.51946 0.16684,-0.51945 0.45583,-0.51946 0.62268,-0.51944 0.62266,-0.51945 0.45583,-0.51945 0.16686,-0.51946 -0.16686,-0.51946 -0.45583,-0.51944 -0.62266,-0.51945 -0.62268,-0.51946 -0.45583,-0.51945 -0.16684,-0.51944 1.24535,-1.06451" /></g><g
                     id="g166"><g
                       transform="translate(-21.428,-104.515)"
                       id="g168"><g
                         id="g170"><g
                           transform="translate(-84.8,-95.269)"
                           id="g172"><g
                             style="font-variant:normal;font-weight:normal;font-size:9.96264px;font-family:'Fira Math';-inkscape-font-specification:FiraMath-Regular;writing-mode:lr-tb;fill:#000000;fill-opacity:1;fill-rule:nonzero;stroke:none"
                             id="text176"
                             transform="matrix(1,0,0,-1,84.8,95.269)"
                             aria-label="γ"><path
                               id="path472"
                               d="m 0.81693646,-5.3599002 -0.86674966,0.3287671 c 0.68742215,0.7671233 1.2154421,2.3113324 1.9427148,4.9315067 -0.3686177,0.86674967 -0.3586551,1.4645081 0.039851,2.2515566 L 2.6600248,2.0124532 C 2.5006226,1.1158157 2.5205479,0.52801991 2.8094644,-0.21917808 L 4.702366,-5.1706101 3.7758405,-5.3599002 2.3910336,-1.0560398 C 1.9726027,-3.3275217 1.2851805,-4.7422165 0.81693646,-5.3599002 Z" /></g><g
                             transform="translate(84.8,95.269)"
                             id="g178" /></g></g><g
                         transform="translate(21.428,104.515)"
                         id="g180" /></g></g></g></g><g
                 id="g182"><g
                   id="g184"><path
                     id="path186"
                     style="fill:none;stroke:#57caff;stroke-width:0.3985;stroke-linecap:butt;stroke-linejoin:miter;stroke-miterlimit:10;stroke-dasharray:none;stroke-opacity:1"
                     d="m 12.47397,-93.55644 6.23747,-49.89697" /><g
                     id="g188"><g
                       transform="translate(2.648,-128.289)"
                       id="g190"><g
                         id="g192"><g
                           transform="translate(-108.876,-71.495)"
                           id="g194"><g
                             style="font-variant:normal;font-weight:normal;font-size:9.96264px;font-family:'Fira Math';-inkscape-font-specification:FiraMath-Regular;writing-mode:lr-tb;fill:#000000;fill-opacity:1;fill-rule:nonzero;stroke:none"
                             id="text198"
                             transform="matrix(1,0,0,-1,108.876,71.495)"
                             aria-label="e"><path
                               id="path475"
                               d="m 4.9115814,-2.7795765 c 0,-1.603985 -0.747198,-2.5902864 -2.1618928,-2.5902864 -1.354919,0 -2.18181813,1.1656289 -2.18181813,2.7995018 0,1.66376088 0.85678703,2.68991278 2.32129503,2.68991278 0.7272728,0 1.3150685,-0.249066 1.8331258,-0.65753423 L 4.3237857,-1.0859277 c -0.4582815,0.31880443 -0.8468244,0.45828139 -1.3648817,0.45828139 -0.7571606,0 -1.3250311,-0.46824409 -1.4146948,-1.68368609 h 3.3474469 c 0.00996,-0.1195517 0.019925,-0.2889166 0.019925,-0.4682441 z M 4.0049812,-2.9887919 h -2.460772 c 0.069738,-1.1656289 0.5280199,-1.6537983 1.2254047,-1.6537983 0.8268991,0 1.2353673,0.5678705 1.2353673,1.5940224 z" /></g><g
                             style="font-variant:normal;font-weight:normal;font-size:7.1731px;font-family:'Fira Math';-inkscape-font-specification:FiraMath-Regular;writing-mode:lr-tb;fill:#000000;fill-opacity:1;fill-rule:nonzero;stroke:none"
                             id="text202"
                             transform="matrix(1,0,0,-1,114.306,75.479)"
                             aria-label="−"><path
                               id="path478"
                               d="M 0.4447322,-1.7358902 H 3.1418178 V -2.2810458 H 0.4447322 Z" /></g><g
                             transform="translate(108.876,71.495)"
                             id="g204" /></g></g><g
                         transform="translate(-2.648,128.289)"
                         id="g206" /></g></g></g></g><g
                 id="g208"><g
                   id="g210"><g
                     id="g212"><path
                       id="path214"
                       style="fill:none;stroke:#cc0000;stroke-width:0.3985;stroke-linecap:butt;stroke-linejoin:miter;stroke-miterlimit:10;stroke-dasharray:none;stroke-opacity:1"
                       d="m 12.47397,-93.55644 0.37086,-0.37086 0.81115,0.06944 0.69316,-0.04854 0.48884,-0.25287 0.25289,-0.48885 0.04853,-0.69316 -0.06944,-0.81116 -0.06944,-0.81114 0.04854,-0.69316 0.25288,-0.48884 0.48883,-0.25289 0.69316,-0.04853 0.81116,0.06944 0.81114,0.06944 0.69318,-0.04855 0.48884,-0.25287 0.25287,-0.48883 0.04854,-0.69316 -0.06944,-0.81116 -0.06943,-0.81116 0.04854,-0.69316 0.25287,-0.48885 0.48883,-0.25286 0.69317,-0.0486 0.81116,0.0694 0.81114,0.0694 0.69316,-0.0485 0.48885,-0.25287 0.25289,-0.48885 0.04853,-0.69315 -0.06944,-0.81116 -0.06944,-0.81114 0.04853,-0.69317 0.25289,-0.48886 0.48883,-0.25287 0.69318,-0.0485 0.81114,0.0694 0.81114,0.0694 0.69318,-0.0485 0.48884,-0.25287 0.25287,-0.48883 0.04854,-0.69318 -0.06943,-0.81115 -0.06944,-0.81115 0.04854,-0.69316 0.25287,-0.48884 0.48883,-0.25287 0.69319,-0.0485 0.81114,0.0694 0.81114,0.0694 0.69317,-0.0485 0.48884,-0.25287 0.25288,-0.48884 0.04854,-0.69318 -0.06944,-0.81114 -0.06945,-0.81114 0.04854,-0.69318 0.25289,-0.48885 0.48883,-0.25286 0.69317,-0.0485 0.81115,0.0694 0.81115,0.0694 0.69318,-0.0485 0.48883,-0.25287 0.25287,-0.48883 0.04854,-0.69317 -0.06943,-0.81116 -0.06944,-0.81114 0.04853,-0.69318 0.25287,-0.48883 0.48885,-0.25287 0.69318,-0.0485 0.81114,0.0694 0.81114,0.0694 0.69318,-0.0485 0.48883,-0.25287 0.25288,-0.48886 0.04854,-0.69316 -0.06944,-0.81114 -0.06945,-0.81114 0.04856,-0.69319 0.25286,-0.48883 1.65593,0.10522" /></g><g
                     id="g216"><g
                       transform="translate(31.586,-103.476)"
                       id="g218"><g
                         id="g220"><g
                           transform="translate(-137.814,-96.308)"
                           id="g222"><g
                             style="font-variant:normal;font-weight:normal;font-size:9.96264px;font-family:'Fira Math';-inkscape-font-specification:FiraMath-Regular;writing-mode:lr-tb;fill:#000000;fill-opacity:1;fill-rule:nonzero;stroke:none"
                             id="text226"
                             transform="matrix(1,0,0,-1,137.814,96.308)"
                             aria-label="γ"><path
                               id="path481"
                               d="m 0.81693646,-5.3599002 -0.86674966,0.3287671 c 0.68742215,0.7671233 1.2154421,2.3113324 1.9427148,4.9315067 -0.3686177,0.86674967 -0.3586551,1.4645081 0.039851,2.2515566 L 2.6600248,2.0124532 C 2.5006226,1.1158157 2.5205479,0.52801991 2.8094644,-0.21917808 L 4.702366,-5.1706101 3.7758405,-5.3599002 2.3910336,-1.0560398 C 1.9726027,-3.3275217 1.2851805,-4.7422165 0.81693646,-5.3599002 Z" /></g><g
                             transform="translate(137.814,96.308)"
                             id="g228" /></g></g><g
                         transform="translate(-31.586,103.476)"
                         id="g230" /></g></g></g></g><g
                 id="g232"><g
                   id="g234"><path
                     id="path236"
                     style="fill:none;stroke:#57caff;stroke-width:0.3985;stroke-linecap:butt;stroke-linejoin:miter;stroke-miterlimit:10;stroke-dasharray:none;stroke-opacity:1"
                     d="m -62.37097,-124.74197 -43.65947,-31.18547" /><g
                     id="g238"><g
                       transform="translate(-97.144,-136.694)"
                       id="g240"><g
                         id="g242"><g
                           transform="translate(-9.084,-63.09)"
                           id="g244"><g
                             style="font-variant:normal;font-weight:normal;font-size:9.96264px;font-family:'Fira Math';-inkscape-font-specification:FiraMath-Regular;writing-mode:lr-tb;fill:#000000;fill-opacity:1;fill-rule:nonzero;stroke:none"
                             id="text248"
                             transform="matrix(1,0,0,-1,9.084,63.09)"
                             aria-label="e"><path
                               id="path484"
                               d="m 4.9115814,-2.7795765 c 0,-1.603985 -0.747198,-2.5902864 -2.1618928,-2.5902864 -1.354919,0 -2.18181813,1.1656289 -2.18181813,2.7995018 0,1.66376088 0.85678703,2.68991278 2.32129503,2.68991278 0.7272728,0 1.3150685,-0.249066 1.8331258,-0.65753423 L 4.3237857,-1.0859277 c -0.4582815,0.31880443 -0.8468244,0.45828139 -1.3648817,0.45828139 -0.7571606,0 -1.3250311,-0.46824409 -1.4146948,-1.68368609 h 3.3474469 c 0.00996,-0.1195517 0.019925,-0.2889166 0.019925,-0.4682441 z M 4.0049812,-2.9887919 h -2.460772 c 0.069738,-1.1656289 0.5280199,-1.6537983 1.2254047,-1.6537983 0.8268991,0 1.2353673,0.5678705 1.2353673,1.5940224 z" /></g><g
                             style="font-variant:normal;font-weight:normal;font-size:7.1731px;font-family:'Fira Math';-inkscape-font-specification:FiraMath-Regular;writing-mode:lr-tb;fill:#000000;fill-opacity:1;fill-rule:nonzero;stroke:none"
                             id="text252"
                             transform="matrix(1,0,0,-1,14.514,67.075)"
                             aria-label="+"><path
                               id="path487"
                               d="M 2.0945452,-3.3570108 H 1.4920048 v 1.075965 H 0.4447322 v 0.5451556 h 1.0472726 v 1.075965 h 0.6025404 v -1.075965 H 3.1418178 V -2.2810458 H 2.0945452 Z" /></g><g
                             transform="translate(9.084,63.09)"
                             id="g254" /></g></g><g
                         transform="translate(97.144,136.694)"
                         id="g256" /></g></g></g></g><g
                 id="g258"><g
                   id="g260"><g
                     id="g262"><path
                       id="path264"
                       style="fill:none;stroke:#cc0000;stroke-width:0.3985;stroke-linecap:butt;stroke-linejoin:miter;stroke-miterlimit:10;stroke-dasharray:none;stroke-opacity:1"
                       d="m -62.37097,-124.74197 -0.08658,-0.51953 0.52757,-0.62192 0.36302,-0.5945 0.07798,-0.54698 -0.25116,-0.49211 -0.5362,-0.44463 -0.70076,-0.41721 -0.70073,-0.4172 -0.53621,-0.44463 -0.25114,-0.49211 0.07798,-0.54698 0.36301,-0.5945 0.52758,-0.62192 0.52755,-0.6219 0.36303,-0.59448 0.07798,-0.54698 -0.25114,-0.49213 -0.53621,-0.44462 -0.70074,-0.41721 -0.70076,-0.41719 -0.5362,-0.44463 -0.25116,-0.49212 0.07799,-0.54698 0.36302,-0.5945 0.52757,-0.6219 0.52758,-0.62191 0.36302,-0.5945 0.07797,-0.54698 -0.25116,-0.49212 -0.53619,-0.44461 -0.70074,-0.41721 -0.70075,-0.41721 -0.53621,-0.44462 -0.25114,-0.49214 0.07797,-0.54697 0.36302,-0.59448 0.52757,-0.62192 0.52756,-0.6219 0.36304,-0.5945 0.07797,-0.54697 -0.25115,-0.49213 -0.5362,-0.44462 -0.70075,-0.4172 -0.70076,-0.41721 -0.53619,-0.44461 -0.25115,-0.49214 0.07797,-0.54698 0.36303,-0.59449 0.52757,-0.62191 0.52757,-0.62189 0.36303,-0.5945 0.07797,-0.54698 -0.25117,-0.49213 -0.53617,-0.44462 -0.70076,-0.41719 -0.70075,-0.41721 -0.53621,-0.44462 -0.25114,-0.49215 0.07797,-0.54698 0.36302,-0.59447 0.52758,-0.62191 0.52757,-0.62191 0.36302,-0.59449 0.07797,-0.54699 -0.25114,-0.4921 -0.53621,-0.44463 -0.70075,-0.41721 -0.70075,-0.41721 -0.53618,-0.44462 -0.25116,-0.49213 1.05208,-1.25877" /></g><g
                     id="g266"><g
                       transform="translate(-61.969,-152.332)"
                       id="g268"><g
                         id="g270"><g
                           transform="translate(-44.259,-47.452)"
                           id="g272"><g
                             style="font-variant:normal;font-weight:normal;font-size:9.96264px;font-family:'Fira Math';-inkscape-font-specification:FiraMath-Regular;writing-mode:lr-tb;fill:#000000;fill-opacity:1;fill-rule:nonzero;stroke:none"
                             id="text276"
                             transform="matrix(1,0,0,-1,44.259,47.452)"
                             aria-label="γ"><path
                               id="path490"
                               d="m 0.81693646,-5.3599002 -0.86674966,0.3287671 c 0.68742215,0.7671233 1.2154421,2.3113324 1.9427148,4.9315067 -0.3686177,0.86674967 -0.3586551,1.4645081 0.039851,2.2515566 L 2.6600248,2.0124532 C 2.5006226,1.1158157 2.5205479,0.52801991 2.8094644,-0.21917808 L 4.702366,-5.1706101 3.7758405,-5.3599002 2.3910336,-1.0560398 C 1.9726027,-3.3275217 1.2851805,-4.7422165 0.81693646,-5.3599002 Z" /></g><g
                             transform="translate(44.259,47.452)"
                             id="g278" /></g></g><g
                         transform="translate(61.969,152.332)"
                         id="g280" /></g></g></g></g><g
                 id="g282"><g
                   id="g284"><path
                     id="path286"
                     style="fill:none;stroke:#57caff;stroke-width:0.3985;stroke-linecap:butt;stroke-linejoin:miter;stroke-miterlimit:10;stroke-dasharray:none;stroke-opacity:1"
                     d="m -24.94795,-124.74197 -18.7115,-62.37098" /><g
                     id="g288"><g
                       transform="translate(-47.247,-152.286)"
                       id="g290"><g
                         id="g292"><g
                           transform="translate(-58.981,-47.498)"
                           id="g294"><g
                             style="font-variant:normal;font-weight:normal;font-size:9.96264px;font-family:'Fira Math';-inkscape-font-specification:FiraMath-Regular;writing-mode:lr-tb;fill:#000000;fill-opacity:1;fill-rule:nonzero;stroke:none"
                             id="text298"
                             transform="matrix(1,0,0,-1,58.981,47.498)"
                             aria-label="e"><path
                               id="path493"
                               d="m 4.9115814,-2.7795765 c 0,-1.603985 -0.747198,-2.5902864 -2.1618928,-2.5902864 -1.354919,0 -2.18181813,1.1656289 -2.18181813,2.7995018 0,1.66376088 0.85678703,2.68991278 2.32129503,2.68991278 0.7272728,0 1.3150685,-0.249066 1.8331258,-0.65753423 L 4.3237857,-1.0859277 c -0.4582815,0.31880443 -0.8468244,0.45828139 -1.3648817,0.45828139 -0.7571606,0 -1.3250311,-0.46824409 -1.4146948,-1.68368609 h 3.3474469 c 0.00996,-0.1195517 0.019925,-0.2889166 0.019925,-0.4682441 z M 4.0049812,-2.9887919 h -2.460772 c 0.069738,-1.1656289 0.5280199,-1.6537983 1.2254047,-1.6537983 0.8268991,0 1.2353673,0.5678705 1.2353673,1.5940224 z" /></g><g
                             style="font-variant:normal;font-weight:normal;font-size:7.1731px;font-family:'Fira Math';-inkscape-font-specification:FiraMath-Regular;writing-mode:lr-tb;fill:#000000;fill-opacity:1;fill-rule:nonzero;stroke:none"
                             id="text302"
                             transform="matrix(1,0,0,-1,64.41,51.482)"
                             aria-label="+"><path
                               id="path496"
                               d="M 2.0945452,-3.3570108 H 1.4920048 v 1.075965 H 0.4447322 v 0.5451556 h 1.0472726 v 1.075965 h 0.6025404 v -1.075965 H 3.1418178 V -2.2810458 H 2.0945452 Z" /></g><g
                             transform="translate(58.981,47.498)"
                             id="g304" /></g></g><g
                         transform="translate(47.247,152.286)"
                         id="g306" /></g></g></g></g><g
                 id="g308"><g
                   id="g310"><path
                     id="path312"
                     style="fill:none;stroke:#57caff;stroke-width:0.3985;stroke-linecap:butt;stroke-linejoin:miter;stroke-miterlimit:10;stroke-dasharray:none;stroke-opacity:1"
                     d="m -24.94795,-124.74197 12.47398,-62.37098" /><g
                     id="g314"><g
                       transform="translate(-15.191,-152.286)"
                       id="g316"><g
                         id="g318"><g
                           transform="translate(-91.037,-47.498)"
                           id="g320"><g
                             style="font-variant:normal;font-weight:normal;font-size:9.96264px;font-family:'Fira Math';-inkscape-font-specification:FiraMath-Regular;writing-mode:lr-tb;fill:#000000;fill-opacity:1;fill-rule:nonzero;stroke:none"
                             id="text324"
                             transform="matrix(1,0,0,-1,91.037,47.498)"
                             aria-label="e"><path
                               id="path499"
                               d="m 4.9115814,-2.7795765 c 0,-1.603985 -0.747198,-2.5902864 -2.1618928,-2.5902864 -1.354919,0 -2.18181813,1.1656289 -2.18181813,2.7995018 0,1.66376088 0.85678703,2.68991278 2.32129503,2.68991278 0.7272728,0 1.3150685,-0.249066 1.8331258,-0.65753423 L 4.3237857,-1.0859277 c -0.4582815,0.31880443 -0.8468244,0.45828139 -1.3648817,0.45828139 -0.7571606,0 -1.3250311,-0.46824409 -1.4146948,-1.68368609 h 3.3474469 c 0.00996,-0.1195517 0.019925,-0.2889166 0.019925,-0.4682441 z M 4.0049812,-2.9887919 h -2.460772 c 0.069738,-1.1656289 0.5280199,-1.6537983 1.2254047,-1.6537983 0.8268991,0 1.2353673,0.5678705 1.2353673,1.5940224 z" /></g><g
                             style="font-variant:normal;font-weight:normal;font-size:7.1731px;font-family:'Fira Math';-inkscape-font-specification:FiraMath-Regular;writing-mode:lr-tb;fill:#000000;fill-opacity:1;fill-rule:nonzero;stroke:none"
                             id="text328"
                             transform="matrix(1,0,0,-1,96.467,51.482)"
                             aria-label="−"><path
                               id="path502"
                               d="M 0.4447322,-1.7358902 H 3.1418178 V -2.2810458 H 0.4447322 Z" /></g><g
                             transform="translate(91.037,47.498)"
                             id="g330" /></g></g><g
                         transform="translate(15.191,152.286)"
                         id="g332" /></g></g></g></g><g
                 id="g334"><g
                   id="g336"><g
                     id="g338"><path
                       id="path340"
                       style="fill:none;stroke:#cc0000;stroke-width:0.3985;stroke-linecap:butt;stroke-linejoin:miter;stroke-miterlimit:10;stroke-dasharray:none;stroke-opacity:1"
                       d="m 18.71144,-143.45341 -0.22252,-0.44501 0.33438,-0.72347 0.18518,-0.64885 -0.07328,-0.51963 -0.37174,-0.37038 -0.6302,-0.24117 -0.77941,-0.16655 -0.7794,-0.16655 -0.63019,-0.24116 -0.37173,-0.37039 -0.07329,-0.51963 0.18516,-0.64885 0.33439,-0.72346 0.33438,-0.72347 0.18518,-0.64884 -0.07329,-0.51964 -0.37173,-0.37038 -0.63021,-0.24116 -0.7794,-0.16655 -0.7794,-0.16657 -0.63021,-0.24115 -0.37171,-0.37039 -0.07331,-0.51962 0.18518,-0.64887 0.33438,-0.72345 0.33438,-0.72346 0.18518,-0.64885 -0.07329,-0.51964 -0.37173,-0.37038 -0.6302,-0.24116 -0.77941,-0.16655 -0.7794,-0.16656 -0.6302,-0.24117 -0.37174,-0.37038 -0.07329,-0.51964 0.18518,-0.64885 0.33439,-0.72346 0.33438,-0.72345 0.18518,-0.64885 -0.07329,-0.51964 -0.37174,-0.37038 -0.6302,-0.24116 -0.7794,-0.16657 -0.77941,-0.16655 -0.6302,-0.24116 -0.37174,-0.37038 -0.07328,-0.51963 0.18518,-0.64885 0.33438,-0.72347 0.33438,-0.72345 0.18518,-0.64886 -0.07329,-0.51963 -0.37173,-0.37039 -0.6302,-0.24116 -0.77941,-0.16655 -0.7794,-0.16655 -0.63021,-0.24117 -0.37173,-0.37037 -0.07329,-0.51964 0.18518,-0.64885 0.33438,-0.72347 0.33439,-0.72346 0.18517,-0.64885 -0.07328,-0.51962 -0.37174,-0.37039 -0.6302,-0.24117 -0.7794,-0.16655 -0.77941,-0.16655 -0.6302,-0.24117 -0.37173,-0.37037 -0.07329,-0.51964 0.18518,-0.64885 0.33438,-0.72346 0.33438,-0.72349 0.18518,-0.64885 -0.07329,-0.51963 -0.37173,-0.37038 -0.6302,-0.24116 -0.77941,-0.16655 -0.7794,-0.16655 -0.63019,-0.24117 -0.37173,-0.37038 L 0,-180.87541" /></g><g
                     id="g342"><g
                       transform="translate(1.034,-156.491)"
                       id="g344"><g
                         id="g346"><g
                           transform="translate(-107.262,-43.293)"
                           id="g348"><g
                             style="font-variant:normal;font-weight:normal;font-size:9.96264px;font-family:'Fira Math';-inkscape-font-specification:FiraMath-Regular;writing-mode:lr-tb;fill:#000000;fill-opacity:1;fill-rule:nonzero;stroke:none"
                             id="text352"
                             transform="matrix(1,0,0,-1,107.262,43.293)"
                             aria-label="γ"><path
                               id="path505"
                               d="m 0.81693646,-5.3599002 -0.86674966,0.3287671 c 0.68742215,0.7671233 1.2154421,2.3113324 1.9427148,4.9315067 -0.3686177,0.86674967 -0.3586551,1.4645081 0.039851,2.2515566 L 2.6600248,2.0124532 C 2.5006226,1.1158157 2.5205479,0.52801991 2.8094644,-0.21917808 L 4.702366,-5.1706101 3.7758405,-5.3599002 2.3910336,-1.0560398 C 1.9726027,-3.3275217 1.2851805,-4.7422165 0.81693646,-5.3599002 Z" /></g><g
                             transform="translate(107.262,43.293)"
                             id="g354" /></g></g><g
                         transform="translate(-1.034,156.491)"
                         id="g356" /></g></g></g></g><g
                 id="g358"><g
                   id="g360"><path
                     id="path362"
                     style="fill:none;stroke:#57caff;stroke-width:0.3985;stroke-linecap:butt;stroke-linejoin:miter;stroke-miterlimit:10;stroke-dasharray:none;stroke-opacity:1"
                     d="m 18.71144,-143.45341 18.71149,-49.89701" /><g
                     id="g364"><g
                       transform="translate(31.587,-164.761)"
                       id="g366"><g
                         id="g368"><g
                           transform="translate(-137.815,-35.023)"
                           id="g370"><g
                             style="font-variant:normal;font-weight:normal;font-size:9.96264px;font-family:'Fira Math';-inkscape-font-specification:FiraMath-Regular;writing-mode:lr-tb;fill:#000000;fill-opacity:1;fill-rule:nonzero;stroke:none"
                             id="text374"
                             transform="matrix(1,0,0,-1,137.815,35.023)"
                             aria-label="e"><path
                               id="path508"
                               d="m 4.9115814,-2.7795765 c 0,-1.603985 -0.747198,-2.5902864 -2.1618928,-2.5902864 -1.354919,0 -2.18181813,1.1656289 -2.18181813,2.7995018 0,1.66376088 0.85678703,2.68991278 2.32129503,2.68991278 0.7272728,0 1.3150685,-0.249066 1.8331258,-0.65753423 L 4.3237857,-1.0859277 c -0.4582815,0.31880443 -0.8468244,0.45828139 -1.3648817,0.45828139 -0.7571606,0 -1.3250311,-0.46824409 -1.4146948,-1.68368609 h 3.3474469 c 0.00996,-0.1195517 0.019925,-0.2889166 0.019925,-0.4682441 z M 4.0049812,-2.9887919 h -2.460772 c 0.069738,-1.1656289 0.5280199,-1.6537983 1.2254047,-1.6537983 0.8268991,0 1.2353673,0.5678705 1.2353673,1.5940224 z" /></g><g
                             style="font-variant:normal;font-weight:normal;font-size:7.1731px;font-family:'Fira Math';-inkscape-font-specification:FiraMath-Regular;writing-mode:lr-tb;fill:#000000;fill-opacity:1;fill-rule:nonzero;stroke:none"
                             id="text378"
                             transform="matrix(1,0,0,-1,143.245,39.008)"
                             aria-label="−"><path
                               id="path511"
                               d="M 0.4447322,-1.7358902 H 3.1418178 V -2.2810458 H 0.4447322 Z" /></g><g
                             transform="translate(137.815,35.023)"
                             id="g380" /></g></g><g
                         transform="translate(-31.587,164.761)"
                         id="g382" /></g></g></g></g><g
                 id="g384"><g
                   id="g386"><path
                     id="path388"
                     style="fill:none;stroke:#57caff;stroke-width:0.3985;stroke-linecap:butt;stroke-linejoin:miter;stroke-miterlimit:10;stroke-dasharray:none;stroke-opacity:1"
                     d="m 43.65945,-124.74197 37.42298,-74.84496" /><g
                     id="g390"><g
                       transform="translate(49.426,-171.948)"
                       id="g392"><g
                         id="g394"><g
                           transform="translate(-155.654,-27.836)"
                           id="g396"><g
                             style="font-variant:normal;font-weight:normal;font-size:9.96264px;font-family:'Fira Math';-inkscape-font-specification:FiraMath-Regular;writing-mode:lr-tb;fill:#000000;fill-opacity:1;fill-rule:nonzero;stroke:none"
                             id="text400"
                             transform="matrix(1,0,0,-1,155.654,27.836)"
                             aria-label="e"><path
                               id="path514"
                               d="m 4.9115814,-2.7795765 c 0,-1.603985 -0.747198,-2.5902864 -2.1618928,-2.5902864 -1.354919,0 -2.18181813,1.1656289 -2.18181813,2.7995018 0,1.66376088 0.85678703,2.68991278 2.32129503,2.68991278 0.7272728,0 1.3150685,-0.249066 1.8331258,-0.65753423 L 4.3237857,-1.0859277 c -0.4582815,0.31880443 -0.8468244,0.45828139 -1.3648817,0.45828139 -0.7571606,0 -1.3250311,-0.46824409 -1.4146948,-1.68368609 h 3.3474469 c 0.00996,-0.1195517 0.019925,-0.2889166 0.019925,-0.4682441 z M 4.0049812,-2.9887919 h -2.460772 c 0.069738,-1.1656289 0.5280199,-1.6537983 1.2254047,-1.6537983 0.8268991,0 1.2353673,0.5678705 1.2353673,1.5940224 z" /></g><g
                             style="font-variant:normal;font-weight:normal;font-size:7.1731px;font-family:'Fira Math';-inkscape-font-specification:FiraMath-Regular;writing-mode:lr-tb;fill:#000000;fill-opacity:1;fill-rule:nonzero;stroke:none"
                             id="text404"
                             transform="matrix(1,0,0,-1,161.084,31.82)"
                             aria-label="−"><path
                               id="path517"
                               d="M 0.4447322,-1.7358902 H 3.1418178 V -2.2810458 H 0.4447322 Z" /></g><g
                             transform="translate(155.654,27.836)"
                             id="g406" /></g></g><g
                         transform="translate(-49.426,171.948)"
                         id="g408" /></g></g></g></g><g
                 id="g410"><g
                   id="g412"><path
                     id="path414"
                     style="fill:none;stroke:#57caff;stroke-width:0.3985;stroke-linecap:butt;stroke-linejoin:miter;stroke-miterlimit:10;stroke-dasharray:none;stroke-opacity:1"
                     d="m 43.65945,-124.74197 62.37099,-43.65946" /><g
                     id="g416"><g
                       transform="translate(78.364,-142.931)"
                       id="g418"><g
                         id="g420"><g
                           transform="translate(-184.592,-56.853)"
                           id="g422"><g
                             style="font-variant:normal;font-weight:normal;font-size:9.96264px;font-family:'Fira Math';-inkscape-font-specification:FiraMath-Regular;writing-mode:lr-tb;fill:#000000;fill-opacity:1;fill-rule:nonzero;stroke:none"
                             id="text426"
                             transform="matrix(1,0,0,-1,184.592,56.853)"
                             aria-label="e"><path
                               id="path520"
                               d="m 4.9115814,-2.7795765 c 0,-1.603985 -0.747198,-2.5902864 -2.1618928,-2.5902864 -1.354919,0 -2.18181813,1.1656289 -2.18181813,2.7995018 0,1.66376088 0.85678703,2.68991278 2.32129503,2.68991278 0.7272728,0 1.3150685,-0.249066 1.8331258,-0.65753423 L 4.3237857,-1.0859277 c -0.4582815,0.31880443 -0.8468244,0.45828139 -1.3648817,0.45828139 -0.7571606,0 -1.3250311,-0.46824409 -1.4146948,-1.68368609 h 3.3474469 c 0.00996,-0.1195517 0.019925,-0.2889166 0.019925,-0.4682441 z M 4.0049812,-2.9887919 h -2.460772 c 0.069738,-1.1656289 0.5280199,-1.6537983 1.2254047,-1.6537983 0.8268991,0 1.2353673,0.5678705 1.2353673,1.5940224 z" /></g><g
                             style="font-variant:normal;font-weight:normal;font-size:7.1731px;font-family:'Fira Math';-inkscape-font-specification:FiraMath-Regular;writing-mode:lr-tb;fill:#000000;fill-opacity:1;fill-rule:nonzero;stroke:none"
                             id="text430"
                             transform="matrix(1,0,0,-1,190.022,60.838)"
                             aria-label="+"><path
                               id="path523"
                               d="M 2.0945452,-3.3570108 H 1.4920048 v 1.075965 H 0.4447322 v 0.5451556 h 1.0472726 v 1.075965 h 0.6025404 v -1.075965 H 3.1418178 V -2.2810458 H 2.0945452 Z" /></g><g
                             transform="translate(184.592,56.853)"
                             id="g432" /></g></g><g
                         transform="translate(-78.364,142.931)"
                         id="g434" /></g></g></g></g></g></g></g></g></g></g></svg>
